<?xml version="1.0" encoding="UTF-8" standalone="no" ?>
<!DOCTYPE svg PUBLIC "-//W3C//DTD SVG 1.1//EN" "http://www.w3.org/Graphics/SVG/1.1/DTD/svg11.dtd">
<svg xmlns="http://www.w3.org/2000/svg" xmlns:xlink="http://www.w3.org/1999/xlink" version="1.1" width="600" height="600" viewBox="0 0 600 600" xml:space="preserve">
<desc>Created with Fabric.js 5.2.4</desc>
<defs>
</defs>
<g transform="matrix(1 0 0 1 300 300)" id="e18d5f2a-1398-41c3-9815-09a350ebf722"  >
<rect style="stroke: none; stroke-width: 1; stroke-dasharray: none; stroke-linecap: butt; stroke-dashoffset: 0; stroke-linejoin: miter; stroke-miterlimit: 4; fill: rgb(255,255,255); fill-rule: nonzero; opacity: 1; visibility: hidden;" vector-effect="non-scaling-stroke"  x="-300" y="-300" rx="0" ry="0" width="600" height="600" />
</g>
<g transform="matrix(Infinity NaN NaN Infinity 0 0)" id="ed8ab0f6-e5b6-422a-9dae-1ed13e4dd5a4"  >
</g>
<g transform="matrix(0.84 0 0 0.84 300 300)"  >
<g style="" vector-effect="non-scaling-stroke"   >
		<g transform="matrix(1 0 0 1 -269.37 212.8)" id="b9ccae5a-ffdd-4f5c-9c1e-05af9f0f3372-257"  >
<path style="stroke: none; stroke-width: 1; stroke-dasharray: none; stroke-linecap: butt; stroke-dashoffset: 0; stroke-linejoin: miter; stroke-miterlimit: 4; fill: rgb(230,230,230); fill-rule: nonzero; opacity: 1;" vector-effect="non-scaling-stroke"  transform=" translate(-330.63, -662.8)" d="M 310.70569 694.02818 C 318.6843748598735 696.8328209946472 327.5482308224341 695.2714872035857 334.08838000000003 689.90941 C 342.27815000000004 683.035 344.84638 671.71341 346.93508 661.2275 L 353.11481000000003 630.21093 L 340.17711 639.1193 C 330.87246000000005 645.52571 321.35885 652.1379599999999 314.91700000000003 661.41715 C 308.47515000000004 670.6963400000001 305.66477000000003 683.36422 310.83908 693.40515" stroke-linecap="round" />
</g>
		<g transform="matrix(1 0 0 1 -277.04 245.62)" id="f4ad1d06-bd03-4ced-a5c4-c19a65ab4ee5-258"  >
<path style="stroke: none; stroke-width: 1; stroke-dasharray: none; stroke-linecap: butt; stroke-dashoffset: 0; stroke-linejoin: miter; stroke-miterlimit: 4; fill: rgb(242,242,242); fill-rule: nonzero; opacity: 1;" vector-effect="non-scaling-stroke"  transform=" translate(-322.96, -695.62)" d="M 312.7034 733.73874 C 311.07500999999996 721.87506 309.39958 709.85796 310.54456 697.86707 C 311.55923 687.21775 314.80829 676.81826 321.42287 668.28769 C 324.9338648445504 663.7691631032216 329.20610993991926 659.8976806184176 334.04753 656.8473 C 335.30968 656.05082 336.47162 658.05084 335.21486 658.8443 C 326.8376743988709 664.1383218069566 320.3581161397724 671.9559049982789 316.7104 681.1699199999999 C 312.68183 691.41599 312.03495 702.58574 312.72886 713.4702199999999 C 313.1483 720.0523999999999 314.0396 726.59142 314.93474 733.1227299999999 C 315.0813982829322 733.7356024352036 314.72824856987387 734.3573338687711 314.12674 734.5452399999999 C 313.511288670108 734.7110272092169 312.8770143171404 734.3507580569334 312.70421 733.7372399999999 Z" stroke-linecap="round" />
</g>
		<g transform="matrix(1 0 0 1 -248.93 259.07)" id="baf785f8-b4c6-42cf-85bd-8a16037845f7-259"  >
<path style="stroke: none; stroke-width: 1; stroke-dasharray: none; stroke-linecap: butt; stroke-dashoffset: 0; stroke-linejoin: miter; stroke-miterlimit: 4; fill: rgb(230,230,230); fill-rule: nonzero; opacity: 1;" vector-effect="non-scaling-stroke"  transform=" translate(-351.07, -709.07)" d="M 324.42443 714.70229 C 327.8458192459428 719.90426448053 333.7335681680905 722.9440156210969 339.95583999999997 722.72091 C 347.82023999999996 722.34773 354.3739 716.86118 360.27297 711.65064 L 377.72497 696.2418399999999 L 366.1751 695.6890299999999 C 357.86890999999997 695.2911899999999 349.34837999999996 694.9180299999999 341.43697 697.4824099999998 C 333.52556 700.0467899999998 326.22938999999997 706.2087999999999 324.78297 714.3978199999998" stroke-linecap="round" />
</g>
		<g transform="matrix(1 0 0 1 -267.94 273.44)" id="a14e4330-7125-4e03-a856-d6453c34f6cc-260"  >
<path style="stroke: none; stroke-width: 1; stroke-dasharray: none; stroke-linecap: butt; stroke-dashoffset: 0; stroke-linejoin: miter; stroke-miterlimit: 4; fill: rgb(242,242,242); fill-rule: nonzero; opacity: 1;" vector-effect="non-scaling-stroke"  transform=" translate(-332.06, -723.44)" d="M 308.10042 740.55843 C 315.94014 726.6870100000001 325.03276 711.27049 341.28121999999996 706.3429100000001 C 345.79869382313314 704.9775966042585 350.5355286708278 704.4884845358172 355.2366699999999 704.90191 C 356.71855999999997 705.0299100000001 356.34845999999993 707.31365 354.8696699999999 707.18645 C 346.98922044585225 706.5321908142367 339.12397941613204 708.6130065931047 332.59802999999994 713.0786 C 326.3180899999999 717.3531300000001 321.4282799999999 723.29615 317.2902199999999 729.5976700000001 C 314.75510999999995 733.4581800000001 312.4844599999999 737.4821200000001 310.21379999999994 741.5006700000001 C 309.48824 742.78513 307.36641 741.85759 308.10042 740.55843 Z" stroke-linecap="round" />
</g>
		<g transform="matrix(1 0 0 1 119.29 -86.4)" id="ac20a106-7eb8-4a45-8835-674ef3bf3222-261"  >
<path style="stroke: none; stroke-width: 1; stroke-dasharray: none; stroke-linecap: butt; stroke-dashoffset: 0; stroke-linejoin: miter; stroke-miterlimit: 4; fill: rgb(255,255,255); fill-rule: nonzero; opacity: 1;" vector-effect="non-scaling-stroke"  transform=" translate(-719.29, -363.6)" d="M 935.3957 569.31654 L 503.18092 569.31654 C 500.4079639027342 569.312931538251 498.1609384617491 567.0659060972658 498.15733 564.29295 L 498.15733 162.90754 C 498.16096045529156 160.13459464929903 500.4079746420777 157.88758493543799 503.18092 157.88396 L 935.3957 157.88396 C 938.1686453579223 157.88758493543799 940.4156595447085 160.13459464929903 940.41929 162.90754 L 940.41929 564.292 C 940.4161872912696 567.0651659456136 938.1688659456136 569.3124872912696 935.3957 569.31559 Z" stroke-linecap="round" />
</g>
		<g transform="matrix(1 0 0 1 119.29 -86.4)" id="a8878079-c7cd-406f-a434-8b15b914b9b4-262"  >
<path style="stroke: none; stroke-width: 1; stroke-dasharray: none; stroke-linecap: butt; stroke-dashoffset: 0; stroke-linejoin: miter; stroke-miterlimit: 4; fill: rgb(202,202,202); fill-rule: nonzero; opacity: 1;" vector-effect="non-scaling-stroke"  transform=" translate(-719.29, -363.6)" d="M 935.3957 569.31654 L 503.18092 569.31654 C 500.4079639027342 569.312931538251 498.1609384617491 567.0659060972658 498.15733 564.29295 L 498.15733 162.90754 C 498.16096045529156 160.13459464929903 500.4079746420777 157.88758493543799 503.18092 157.88396 L 935.3957 157.88396 C 938.1686453579223 157.88758493543799 940.4156595447085 160.13459464929903 940.41929 162.90754 L 940.41929 564.292 C 940.4161872912696 567.0651659456136 938.1688659456136 569.3124872912696 935.3957 569.31559 Z M 503.18092 159.88944 C 501.51920408032083 159.89304793113035 500.173013449004 161.23923409231045 500.1694 162.90095 L 500.1694 564.292 C 500.1730079515471 565.95371981293 501.51920018707006 567.2999120484529 503.18092 567.30352 L 935.3957 567.30352 C 937.0576308787912 567.3004162534427 938.4041207348736 565.9539308684758 938.40723 564.292 L 938.40723 162.90754 C 938.4036110535151 161.2458224747191 937.0574175492783 159.89963791074527 935.3957 159.89603000000002 Z" stroke-linecap="round" />
</g>
		<g transform="matrix(1 0 0 1 200.98 -184.4)" id="af64f961-e9a2-4c53-a333-5060c7f850d2-263"  >
<path style="stroke: none; stroke-width: 1; stroke-dasharray: none; stroke-linecap: butt; stroke-dashoffset: 0; stroke-linejoin: miter; stroke-miterlimit: 4; fill: rgb(228,228,228); fill-rule: nonzero; opacity: 1;" vector-effect="non-scaling-stroke"  transform=" translate(-800.98, -265.6)" d="M 707.41023 262.18528 C 705.5289292981603 262.18850142301926 704.0055399721704 263.7145015400795 704.0055399721704 265.595805 C 704.0055399721704 267.4771084599205 705.5289292981603 269.0031085769807 707.41023 269.00633 L 894.55305 269.00633 C 896.4343507018397 269.0031085769807 897.9577400278296 267.4771084599205 897.9577400278296 265.595805 C 897.9577400278296 263.7145015400795 896.4343507018397 262.18850142301926 894.55305 262.18528 Z" stroke-linecap="round" />
</g>
		<g transform="matrix(1 0 0 1 155.18 -163.94)" id="baad4cfb-158d-4439-9cc3-22475bf47b22-264"  >
<path style="stroke: none; stroke-width: 1; stroke-dasharray: none; stroke-linecap: butt; stroke-dashoffset: 0; stroke-linejoin: miter; stroke-miterlimit: 4; fill: rgb(228,228,228); fill-rule: nonzero; opacity: 1;" vector-effect="non-scaling-stroke"  transform=" translate(-755.18, -286.06)" d="M 707.41023 282.65037 C 705.5298708087699 282.6549234984865 704.0079489769366 284.1805352953771 704.0079489769366 286.0609 C 704.0079489769366 287.9412647046229 705.5298708087699 289.4668765015135 707.41023 289.47143 L 802.9504199999999 289.47143 C 804.8307791912299 289.4668765015135 806.3527010230632 287.9412647046229 806.3527010230632 286.0609 C 806.3527010230632 284.1805352953771 804.8307791912299 282.6549234984865 802.9504199999999 282.65037 Z" stroke-linecap="round" />
</g>
		<g transform="matrix(1 0 0 1 119.29 -53.88)" id="f3456279-91e5-49ad-aa43-9838b26fb6ca-265"  >
<path style="stroke: none; stroke-width: 1; stroke-dasharray: none; stroke-linecap: butt; stroke-dashoffset: 0; stroke-linejoin: miter; stroke-miterlimit: 4; fill: rgb(228,228,228); fill-rule: nonzero; opacity: 1;" vector-effect="non-scaling-stroke"  transform=" translate(-719.29, -396.12)" d="M 543.84146 392.7046 C 541.96110080877 392.7091534984865 540.4391789769367 394.23476529537714 540.4391789769367 396.11513 C 540.4391789769367 397.9954947046229 541.96110080877 399.52110650151354 543.84146 399.52566 L 894.73516 399.52566 C 896.61551919123 399.52110650151354 898.1374410230633 397.9954947046229 898.1374410230633 396.11513 C 898.1374410230633 394.23476529537714 896.61551919123 392.7091534984865 894.73516 392.7046 Z" stroke-linecap="round" />
</g>
		<g transform="matrix(1 0 0 1 73.49 -33.42)" id="a3288adf-49f8-485f-8ae9-1e4f1a13d849-266"  >
<path style="stroke: none; stroke-width: 1; stroke-dasharray: none; stroke-linecap: butt; stroke-dashoffset: 0; stroke-linejoin: miter; stroke-miterlimit: 4; fill: rgb(228,228,228); fill-rule: nonzero; opacity: 1;" vector-effect="non-scaling-stroke"  transform=" translate(-673.49, -416.58)" d="M 543.84146 413.1697 C 541.96110080877 413.17425349848645 540.4391789769367 414.6998652953771 540.4391789769367 416.58023 C 540.4391789769367 418.46059470462285 541.96110080877 419.9862065015135 543.84146 419.99075999999997 L 803.13254 419.99075999999997 C 805.01289919123 419.9862065015135 806.5348210230633 418.46059470462285 806.5348210230633 416.58023 C 806.5348210230633 414.6998652953771 805.01289919123 413.17425349848645 803.13254 413.1697 Z" stroke-linecap="round" />
</g>
		<g transform="matrix(1 0 0 1 119.29 -13.42)" id="e63a5b48-5a7d-40a2-b9b0-6adec326348a-267"  >
<path style="stroke: none; stroke-width: 1; stroke-dasharray: none; stroke-linecap: butt; stroke-dashoffset: 0; stroke-linejoin: miter; stroke-miterlimit: 4; fill: rgb(228,228,228); fill-rule: nonzero; opacity: 1;" vector-effect="non-scaling-stroke"  transform=" translate(-719.29, -436.58)" d="M 543.84146 433.17177 C 541.96110080877 433.17632349848645 540.4391789769367 434.7019352953771 540.4391789769367 436.5823 C 540.4391789769367 438.46266470462285 541.96110080877 439.9882765015135 543.84146 439.99282999999997 L 894.73516 439.99282999999997 C 896.61551919123 439.9882765015135 898.1374410230633 438.46266470462285 898.1374410230633 436.5823 C 898.1374410230633 434.7019352953771 896.61551919123 433.17632349848645 894.73516 433.17177 Z" stroke-linecap="round" />
</g>
		<g transform="matrix(1 0 0 1 73.49 7.05)" id="a1c669b4-dfc3-4cfa-a7be-66b71399844d-268"  >
<path style="stroke: none; stroke-width: 1; stroke-dasharray: none; stroke-linecap: butt; stroke-dashoffset: 0; stroke-linejoin: miter; stroke-miterlimit: 4; fill: rgb(228,228,228); fill-rule: nonzero; opacity: 1;" vector-effect="non-scaling-stroke"  transform=" translate(-673.49, -457.05)" d="M 543.84146 453.63687 C 541.96110080877 453.64142349848646 540.4391789769367 455.1670352953771 540.4391789769367 457.0474 C 540.4391789769367 458.92776470462286 541.96110080877 460.4533765015135 543.84146 460.45793 L 803.13254 460.45793 C 805.01289919123 460.4533765015135 806.5348210230633 458.92776470462286 806.5348210230633 457.0474 C 806.5348210230633 455.1670352953771 805.01289919123 453.64142349848646 803.13254 453.63687 Z" stroke-linecap="round" />
</g>
		<g transform="matrix(1 0 0 1 119.29 27.58)" id="bfec50d1-ffb1-4de6-a9ef-a1085e40e016-269"  >
<path style="stroke: none; stroke-width: 1; stroke-dasharray: none; stroke-linecap: butt; stroke-dashoffset: 0; stroke-linejoin: miter; stroke-miterlimit: 4; fill: rgb(228,228,228); fill-rule: nonzero; opacity: 1;" vector-effect="non-scaling-stroke"  transform=" translate(-719.29, -477.58)" d="M 543.84146 474.17177 C 541.96110080877 474.17632349848645 540.4391789769367 475.7019352953771 540.4391789769367 477.5823 C 540.4391789769367 479.46266470462285 541.96110080877 480.9882765015135 543.84146 480.99282999999997 L 894.73516 480.99282999999997 C 896.61551919123 480.9882765015135 898.1374410230633 479.46266470462285 898.1374410230633 477.5823 C 898.1374410230633 475.7019352953771 896.61551919123 474.17632349848645 894.73516 474.17177 Z" stroke-linecap="round" />
</g>
		<g transform="matrix(1 0 0 1 73.49 48.05)" id="bc9696ec-ec99-41d5-9116-3ad9737a38ac-270"  >
<path style="stroke: none; stroke-width: 1; stroke-dasharray: none; stroke-linecap: butt; stroke-dashoffset: 0; stroke-linejoin: miter; stroke-miterlimit: 4; fill: rgb(228,228,228); fill-rule: nonzero; opacity: 1;" vector-effect="non-scaling-stroke"  transform=" translate(-673.49, -498.05)" d="M 543.84146 494.63687 C 541.96110080877 494.64142349848646 540.4391789769367 496.1670352953771 540.4391789769367 498.0474 C 540.4391789769367 499.92776470462286 541.96110080877 501.4533765015135 543.84146 501.45793 L 803.13254 501.45793 C 805.01289919123 501.4533765015135 806.5348210230633 499.92776470462286 806.5348210230633 498.0474 C 806.5348210230633 496.1670352953771 805.01289919123 494.64142349848646 803.13254 494.63687 Z" stroke-linecap="round" />
</g>
		<g transform="matrix(1 0 0 1 -0.58 -174.17)"  >
<path style="stroke: none; stroke-width: 1; stroke-dasharray: none; stroke-linecap: butt; stroke-dashoffset: 0; stroke-linejoin: miter; stroke-miterlimit: 4; fill: rgb(142,70,158); fill-rule: nonzero; opacity: 1;" vector-effect="non-scaling-stroke"  transform=" translate(-599.42, -275.83)" d="M 599.41943 324.82812 C 579.6007363247087 324.82831414230543 561.7334109185377 312.8899705116322 554.1489906744293 294.5799407849091 C 546.5645704303209 276.269911058186 550.7566839632608 255.19405876365283 564.7705480158161 241.18005743108452 C 578.7844120683712 227.1660560985162 599.8602232960901 222.97373610743762 618.1703273186602 230.5579769867471 C 636.4804313412303 238.14221786605657 648.4189499990491 256.00942632375774 648.41895 275.82812 C 648.3882715237476 302.8771677465381 626.468477444715 324.7971765521876 599.41943 324.82812 Z" stroke-linecap="round" />
</g>
		<g transform="matrix(1 0 0 1 -173.02 49.5)"  >
<path style="stroke: none; stroke-width: 1; stroke-dasharray: none; stroke-linecap: butt; stroke-dashoffset: 0; stroke-linejoin: miter; stroke-miterlimit: 4; fill: rgb(160,97,106); fill-rule: nonzero; opacity: 1;" vector-effect="non-scaling-stroke"  transform=" translate(-426.98, -499.5)" d="M 450.67833 510.10041 C 450.50681174983964 506.47987378031297 448.74042742217824 503.1212660653839 445.8544774283828 500.9283242828652 C 442.9685274345874 498.7353825003466 439.2594656412522 497.9333725321979 435.72533000000004 498.73810000000003 L 419.52892 475.91289000000006 L 403.25754 482.37234000000007 L 426.58273 514.28471 C 428.36732286145246 520.263471226446 434.34163790656163 523.9625676897001 440.4890559151385 522.8950428366757 C 446.63647392371547 521.8275179836512 451.01389712609495 516.3307988704031 450.67832000000004 510.10041 Z" stroke-linecap="round" />
</g>
		<g transform="matrix(1 0 0 1 -198.49 -11.73)"  >
<path style="stroke: none; stroke-width: 1; stroke-dasharray: none; stroke-linecap: butt; stroke-dashoffset: 0; stroke-linejoin: miter; stroke-miterlimit: 4; fill: rgb(63,61,86); fill-rule: nonzero; opacity: 1;" vector-effect="non-scaling-stroke"  transform=" translate(-401.51, -438.27)" d="M 419.11211 508.40888 L 370.10436999999996 444.83111 L 388.46714 387.12 C 389.81277 372.61064 398.89214 368.55911000000003 399.27849 368.39355 L 399.86778999999996 368.14074 L 415.84678999999994 410.75264 L 404.11443999999995 442.03889 L 432.91114999999996 490.47078999999997 Z" stroke-linecap="round" />
</g>
		<g transform="matrix(1 0 0 1 -19.57 -112.92)"  >
<path style="stroke: none; stroke-width: 1; stroke-dasharray: none; stroke-linecap: butt; stroke-dashoffset: 0; stroke-linejoin: miter; stroke-miterlimit: 4; fill: rgb(160,97,106); fill-rule: nonzero; opacity: 1;" vector-effect="non-scaling-stroke"  transform=" translate(-580.43, -337.08)" d="M 589.30794 312.41993 C 585.7115115314838 312.8708747752806 582.499539124717 314.8916475468002 580.5362951765546 317.93850200993285 C 578.5730512283923 320.98535647306545 578.0602041453116 324.74531354799626 579.13575 328.20665 L 557.63112 346.11934 L 565.32928 361.8426 L 595.34271 336.11988 C 601.1656071328567 333.8783778786571 604.3917264853644 327.6359369677835 602.8520963689432 321.589450228823 C 601.312466252522 315.54296348986253 595.4937398175701 311.60363140465256 589.30794 312.41993 Z" stroke-linecap="round" />
</g>
		<g transform="matrix(1 0 0 1 -79.12 -85.27)"  >
<path style="stroke: none; stroke-width: 1; stroke-dasharray: none; stroke-linecap: butt; stroke-dashoffset: 0; stroke-linejoin: miter; stroke-miterlimit: 4; fill: rgb(63,61,86); fill-rule: nonzero; opacity: 1;" vector-effect="non-scaling-stroke"  transform=" translate(-520.88, -364.73)" d="M 590.06206 344.02244 L 530.46371 397.79909000000004 L 471.50556 383.95331000000004 C 456.93556 383.73352000000006 452.1942 374.99461 451.99927 374.62218000000007 L 451.70166 374.0541800000001 L 492.95056 354.8284000000001 L 525.05026 364.1066800000001 L 571.11072 331.6515900000001 Z" stroke-linecap="round" />
</g>
		<g transform="matrix(1 0 0 1 -101.36 245.44)"  >
<polygon style="stroke: none; stroke-width: 1; stroke-dasharray: none; stroke-linecap: butt; stroke-dashoffset: 0; stroke-linejoin: miter; stroke-miterlimit: 4; fill: rgb(160,97,106); fill-rule: nonzero; opacity: 1;" vector-effect="non-scaling-stroke"  points="-11.81,30.88 4.2,30.88 11.82,-30.88 -11.82,-30.88 -11.81,30.88 " />
</g>
		<g transform="matrix(-1 0 0 -1 -91.44 281.47)"  >
<path style="stroke: none; stroke-width: 1; stroke-dasharray: none; stroke-linecap: butt; stroke-dashoffset: 0; stroke-linejoin: miter; stroke-miterlimit: 4; fill: rgb(47,46,65); fill-rule: nonzero; opacity: 1;" vector-effect="non-scaling-stroke"  transform=" translate(-508.56, -731.47)" d="M 483.39733 721.74476 L 533.72347 721.74476 L 533.72347 741.189 L 497.51647 741.189 C 493.7718412496469 741.189 490.1805827438786 739.7014520209229 487.5327303614778 737.0535996385222 C 484.884877979077 734.4057472561215 483.39733 730.814488750353 483.39733 727.06986 L 483.39733 721.7448099999999 Z" stroke-linecap="round" />
</g>
		<g transform="matrix(1 0 0 1 -165.36 245.44)"  >
<polygon style="stroke: none; stroke-width: 1; stroke-dasharray: none; stroke-linecap: butt; stroke-dashoffset: 0; stroke-linejoin: miter; stroke-miterlimit: 4; fill: rgb(160,97,106); fill-rule: nonzero; opacity: 1;" vector-effect="non-scaling-stroke"  points="-11.81,30.88 4.2,30.88 11.82,-30.88 -11.82,-30.88 -11.81,30.88 " />
</g>
		<g transform="matrix(-1 0 0 -1 -155.44 281.47)"  >
<path style="stroke: none; stroke-width: 1; stroke-dasharray: none; stroke-linecap: butt; stroke-dashoffset: 0; stroke-linejoin: miter; stroke-miterlimit: 4; fill: rgb(47,46,65); fill-rule: nonzero; opacity: 1;" vector-effect="non-scaling-stroke"  transform=" translate(-444.56, -731.47)" d="M 419.397 721.74476 L 469.7231 721.74476 L 469.7231 741.189 L 433.5161 741.189 C 429.7714695170265 741.188989391359 426.1802137100537 739.7014298654178 423.53236854164606 737.0535678187342 C 420.88452337323844 734.4057057720507 419.39698673915433 730.814440482965 419.397 727.06981 L 419.397 721.7447599999999 Z" stroke-linecap="round" />
</g>
		<g transform="matrix(1 0 0 1 -134.54 156.67)"  >
<polygon style="stroke: none; stroke-width: 1; stroke-dasharray: none; stroke-linecap: butt; stroke-dashoffset: 0; stroke-linejoin: miter; stroke-miterlimit: 4; fill: rgb(47,46,65); fill-rule: nonzero; opacity: 1;" vector-effect="non-scaling-stroke"  points="-48.33,-105.8 -47.02,-14.37 -45.71,105.8 -16.98,103.18 -2.61,-62.69 15.67,103.18 45.34,103.18 48.33,-64 37.88,-100.57 -48.33,-105.8 " />
</g>
		<g transform="matrix(1 0 0 1 -148.92 -27.56)"  >
<path style="stroke: none; stroke-width: 1; stroke-dasharray: none; stroke-linecap: butt; stroke-dashoffset: 0; stroke-linejoin: miter; stroke-miterlimit: 4; fill: rgb(63,61,86); fill-rule: nonzero; opacity: 1;" vector-effect="non-scaling-stroke"  transform=" translate(-451.08, -422.44)" d="M 473.37417 513.1531 C 442.10884 513.15549 413.32946 499.00471 412.94097999999997 498.81047 L 412.61825 498.64911 L 409.99451999999997 435.68274 C 409.23369999999994 433.45765 394.25188999999995 389.55183 391.71452 375.59649 C 389.14369 361.45767 426.40294 349.04907000000003 430.92752 347.59796 L 431.9543 336.22391 L 473.70796 331.72472999999997 L 478.99996 346.27833 L 493.97938 351.89513 C 497.494227762724 353.2141618908551 499.4670455465132 356.9536107370168 498.5715 360.59943 L 490.24611 394.45561999999995 L 510.57936 506.46827999999994 L 506.20181 506.65773999999993 C 495.709 511.39658 484.38425 513.1525 473.37417 513.1531 Z" stroke-linecap="round" />
</g>
		<g transform="matrix(0.88 -0.48 0.48 0.88 -145.53 -155.54)"  >
<circle style="stroke: none; stroke-width: 1; stroke-dasharray: none; stroke-linecap: butt; stroke-dashoffset: 0; stroke-linejoin: miter; stroke-miterlimit: 4; fill: rgb(160,97,106); fill-rule: nonzero; opacity: 1;" vector-effect="non-scaling-stroke"  cx="0" cy="0" r="30.06284" />
</g>
		<g transform="matrix(1 0 0 1 -148.67 -159.16)"  >
<path style="stroke: none; stroke-width: 1; stroke-dasharray: none; stroke-linecap: butt; stroke-dashoffset: 0; stroke-linejoin: miter; stroke-miterlimit: 4; fill: rgb(47,46,65); fill-rule: nonzero; opacity: 1;" vector-effect="non-scaling-stroke"  transform=" translate(-451.33, -290.84)" d="M 430.1166 323.56132 C 435.84586 329.66421 446.48587 326.38804000000005 447.2324 318.05063 C 447.2909486766119 317.403329770952 447.2867022079121 316.7518819547999 447.21972 316.10540000000003 C 446.83428 312.41229000000004 444.70072 309.05940000000004 445.21172 305.15998 C 445.3273910255628 304.1894853071295 445.6889662687127 303.2646022289125 446.26218 302.47298 C 450.82766 296.35939 461.54481 305.20742 465.85356 299.67298 C 468.49556 296.27939 465.38992 290.93634 467.41737 287.14342 C 470.09328 282.13742 478.0192 284.60688 482.98959 281.86533 C 488.51976 278.81501 488.18899000000005 270.33016 484.54866000000004 265.16922999999997 C 480.10911000000004 258.87523 472.32518000000005 255.51681999999997 464.63822000000005 255.03279999999998 C 456.95126000000005 254.54878 449.31728000000004 256.62674 442.1408200000001 259.42348999999996 C 433.9869000000001 262.60115999999994 425.9011300000001 266.99273999999997 420.88333000000006 274.16248999999993 C 414.7811500000001 282.88167999999996 414.1939100000001 294.60380999999995 417.24573000000004 304.79925999999995 C 419.10222 311.0013 425.43805 318.57766 430.1166 323.56132 Z" stroke-linecap="round" />
</g>
		<g transform="matrix(1 0 0 1 -148.92 290.96)"  >
<path style="stroke: none; stroke-width: 1; stroke-dasharray: none; stroke-linecap: butt; stroke-dashoffset: 0; stroke-linejoin: miter; stroke-miterlimit: 4; fill: rgb(202,202,202); fill-rule: nonzero; opacity: 1;" vector-effect="non-scaling-stroke"  transform=" translate(-451.08, -740.96)" d="M 641.58071 741.9626 L 260.58070999999995 741.9626 C 260.02842525016916 741.9626 259.58070999999995 741.5148847498308 259.58070999999995 740.9626 C 259.58070999999995 740.4103152501691 260.02842525016916 739.9626 260.58070999999995 739.9626 L 641.58071 739.9626 C 642.1329947498308 739.9626 642.58071 740.4103152501691 642.58071 740.9626 C 642.58071 741.5148847498308 642.1329947498308 741.9626 641.58071 741.9626 Z" stroke-linecap="round" />
</g>
		<g transform="matrix(1 0 0 1 3.25 -173.9)"  >
<path style="stroke: none; stroke-width: 1; stroke-dasharray: none; stroke-linecap: butt; stroke-dashoffset: 0; stroke-linejoin: miter; stroke-miterlimit: 4; fill: rgb(255,255,255); fill-rule: nonzero; opacity: 1;" vector-effect="non-scaling-stroke"  transform=" translate(-603.25, -276.1)" d="M 596.58984 294.33545 C 595.7062123469165 294.3364947734414 594.8551212228404 294.0021291216952 594.2085 293.3999 L 578.0512699999999 278.39258 C 576.6373083963483 277.0766369414883 576.5567395156656 274.8639983647669 577.8712484607646 273.4487034191457 C 579.1857574058636 272.0334084735245 581.3983131669609 271.950596519284 582.81494 273.26367 L 596.50049 285.97559 L 623.57715 258.89941 C 624.4602636948821 258.00957556570705 625.7518622623488 257.6600377517215 626.9632047664072 257.98306167715634 C 628.1745472704656 258.3060856025912 629.1206046308808 259.2523302927702 629.4433887145915 260.4637367290437 C 629.7661727983021 261.6751431653172 629.4163792657647 262.96667250198857 628.5263699999999 263.84961 L 599.0654299999999 293.31055 C 598.4092926382726 293.967696997055 597.5184719578608 294.33649882423725 596.58984 294.33545 Z" stroke-linecap="round" />
</g>
</g>
</g>
</svg>