<?xml version="1.0" encoding="UTF-8" standalone="no" ?>
<!DOCTYPE svg PUBLIC "-//W3C//DTD SVG 1.1//EN" "http://www.w3.org/Graphics/SVG/1.1/DTD/svg11.dtd">
<svg xmlns="http://www.w3.org/2000/svg" xmlns:xlink="http://www.w3.org/1999/xlink" version="1.1" width="600" height="600" viewBox="0 0 600 600" xml:space="preserve">
<desc>Created with Fabric.js 5.2.4</desc>
<defs>
</defs>
<rect x="0" y="0" width="100%" height="100%" fill="transparent"></rect>
<g transform="matrix(1 0 0 1 300 300)" id="d0aa2b16-6e2d-4ca6-9cf5-7ad6f305588f"  >
<rect style="stroke: none; stroke-width: 1; stroke-dasharray: none; stroke-linecap: butt; stroke-dashoffset: 0; stroke-linejoin: miter; stroke-miterlimit: 4; fill: rgb(255,255,255); fill-rule: nonzero; opacity: 1; visibility: hidden;" vector-effect="non-scaling-stroke"  x="-300" y="-300" rx="0" ry="0" width="600" height="600" />
</g>
<g transform="matrix(Infinity NaN NaN Infinity 0 0)" id="df553593-6169-4c58-8c3d-9ac3a4269c59"  >
</g>
<g transform="matrix(0.7 0 0 0.82 300 300)"  >
<g style="" vector-effect="non-scaling-stroke"   >
		<g transform="matrix(1 0 0 1 355.46 -12.83)"  >
<circle style="stroke: none; stroke-width: 1; stroke-dasharray: none; stroke-linecap: butt; stroke-dashoffset: 0; stroke-linejoin: miter; stroke-miterlimit: 4; fill: rgb(242,242,242); fill-rule: nonzero; opacity: 1;" vector-effect="non-scaling-stroke"  cx="0" cy="0" r="38" />
</g>
		<g transform="matrix(1 0 0 1 355.46 -12.83)"  >
<circle style="stroke: none; stroke-width: 1; stroke-dasharray: none; stroke-linecap: butt; stroke-dashoffset: 0; stroke-linejoin: miter; stroke-miterlimit: 4; fill: rgb(230,230,230); fill-rule: nonzero; opacity: 1;" vector-effect="non-scaling-stroke"  cx="0" cy="0" r="10" />
</g>
		<g transform="matrix(1 0 0 1 253.66 37.34)"  >
<path style="stroke: none; stroke-width: 1; stroke-dasharray: none; stroke-linecap: butt; stroke-dashoffset: 0; stroke-linejoin: miter; stroke-miterlimit: 4; fill: rgb(204,204,204); fill-rule: nonzero; opacity: 1;" vector-effect="non-scaling-stroke"  transform=" translate(-853.66, -487.34)" d="M 953.62933 437.37949 C 957.84165 440.81597999999997 959.1252499999999 446.23206 958.34151 451.46178 C 957.3786482171702 457.19800338285967 954.4025393235237 462.4031412546306 949.94751 466.14266999999995 C 944.93827 470.59499999999997 938.82841 473.60351999999995 932.9330299999999 476.68420999999995 C 927.5159976492682 479.4487808120972 922.3101280449357 482.60891377955903 917.3577399999999 486.13892 C 898.3971099999999 499.9198199999999 884.0726299999999 519.5420399999999 875.8743999999999 541.4389199999999 C 867.6899999999999 563.29886 865.4940499999999 588.1106 871.7131199999999 610.76621 C 874.7901199999999 621.97537 881.0148099999999 634.06928 892.6112399999998 638.28711 C 901.8549299999999 641.6492 914.4752399999999 639.48344 919.1819299999999 629.95664 C 924.2378499999999 619.72297 917.1839299999998 608.21942 908.0976199999999 603.13898 C 896.3193799999999 596.55338 882.2502699999999 601.3656199999999 871.6564999999999 608.0317699999999 C 859.99344 615.37077 850.6178199999999 625.9023299999999 838.44116 632.4800499999999 C 832.9601387981229 635.5343286513227 826.8610305811064 637.3135620684689 820.59749 637.6854099999999 C 814.8455151692561 637.9117844199782 809.1039751978784 637.0247608063623 803.68849 635.0731 C 792.4524527525605 630.9794018031835 782.7796568067888 623.471269360572 776.02683 613.60181 C 768.2925700000001 602.35889 764.83056 588.57704 764.1992 575.0767 C 762.7865800000001 544.87051 774.71902 516.6117999999999 784.29278 488.59927999999996 C 789.4382624276589 474.01210288055466 793.2928114029801 459.0012449314277 795.81201 443.7396799999999 C 798.2077156521005 428.40071792282765 799.0604183001952 412.86030236185997 798.35734 397.35131 C 797.72367 383.63764 796.37086 369.29731 790.3182400000001 356.77243999999996 C 784.99607 345.7591 775.26934 336.74528 762.9717800000001 334.47276999999997 C 757.4286381701417 333.3848081965183 751.6844458901743 334.04463481898966 746.5323700000001 336.36114 C 744.7782100000002 337.16136 746.3011400000001 339.74775999999997 748.0465300000001 338.95155 C 758.9293500000001 333.987 771.79218 338.81741 779.83032 346.83335999999997 C 789.21681 356.19392999999997 792.66378 370.01714999999996 794.19439 382.77207 C 797.6337689740907 413.0001432018062 794.9233740282262 443.6115865560572 786.22624 472.7650699999999 C 777.87947 501.11723 764.75024 528.28607 761.72064 557.99082 C 760.33821 571.54535 761.0484 585.558 765.38096 598.5556 C 769.0979183623691 610.1333727544009 776.0679854662568 620.3970086882363 785.45918 628.12139 C 794.3013199999999 635.2696500000001 805.17899 640.13991 816.63018 640.68244 C 829.48454 641.2914400000001 840.75686 635.56087 850.72975 627.93764 C 861.41089 619.77304 871.2382699999999 609.69898 884.17675 605.12096 C 890.07537 603.03387 896.7937499999999 602.06026 902.85011 604.06896 C 908.0457484443798 605.8442001004246 912.45293800782 609.3877046665821 915.30241 614.08096 C 917.93284 618.45481 918.90313 623.92343 916.50273 628.62206 C 914.2458700000001 633.03974 909.84073 635.595 905.0720200000001 636.4694900000001 C 900.022405274973 637.3627425977012 894.8192773593837 636.4786666399981 890.3480800000001 633.96771 C 885.1240200000001 630.98415 881.3014300000001 625.97688 878.6234000000001 620.6866200000001 C 873.2830200000001 610.1371200000001 871.4886700000001 597.57919 871.2162800000001 585.8699600000001 C 870.9780586781999 574.4322718739311 872.4435925085186 563.0228239286716 875.5647100000001 552.01664 C 881.7753808125105 529.7527194226062 894.3117856356023 509.76875606211996 911.6538700000001 494.48783000000003 C 916.0228303640113 490.68185542545604 920.6966100761899 487.240651485188 925.6282000000001 484.19883000000004 C 931.0082000000001 480.88283000000007 936.75079 478.23322 942.2354000000001 475.10439 C 947.6321900000002 472.02567000000005 952.9508600000001 468.34718000000004 956.6672500000002 463.28093 C 959.8350721974787 458.9389390337993 961.5459981285759 453.7050374892734 961.5545100000002 448.33029 C 961.6687125851145 443.32493014476665 959.5400116845423 438.53044752555553 955.7506500000002 435.25822999999997 C 954.2668400000002 434.04771 952.1320200000001 436.15801999999996 953.6293300000002 437.37955 Z" stroke-linecap="round" />
</g>
		<g transform="matrix(1 0 0 1 19.4 176.67)"  >
<path style="stroke: none; stroke-width: 1; stroke-dasharray: none; stroke-linecap: butt; stroke-dashoffset: 0; stroke-linejoin: miter; stroke-miterlimit: 4; fill: rgb(63,61,86); fill-rule: nonzero; opacity: 1;" vector-effect="non-scaling-stroke"  transform=" translate(-619.4, -626.67)" d="M 598.87633 612.16592 C 612.1635168745432 620.7546731456682 627.5341535043672 625.5728790061238 643.3465500000001 626.1059200000001 C 643.0641833724508 626.7753630190363 642.7470173413681 627.4295888882449 642.3963500000001 628.0659200000001 C 640.5558448193242 631.4636068645543 637.9547573556143 634.3897956089929 634.7962600000001 636.6159200000001 C 627.1730250268776 641.9810256527078 617.1959891026651 642.6528761654072 608.9222718785877 638.3582663558716 C 600.6485546545102 634.0636565463359 595.4561047282475 625.5178334316387 595.4564100000001 616.1959200000001 L 595.4564100000001 612.1659200000001 Z" stroke-linecap="round" />
</g>
		<g transform="matrix(1 0 0 1 68.21 177.26)"  >
<path style="stroke: none; stroke-width: 1; stroke-dasharray: none; stroke-linecap: butt; stroke-dashoffset: 0; stroke-linejoin: miter; stroke-miterlimit: 4; fill: rgb(63,61,86); fill-rule: nonzero; opacity: 1;" vector-effect="non-scaling-stroke"  transform=" translate(-668.21, -627.26)" d="M 692.14635 613.34591 L 692.14635 616.19591 C 692.1506552572174 627.6101246158852 684.4117425966207 637.5730869304226 673.351214737845 640.3924906471635 C 662.2906868790693 643.2118943639045 650.7267697489292 638.1693545419014 645.26647 628.1459100000001 C 644.9006015740214 627.4941448381329 644.5700476272007 626.8231760398642 644.27624 626.1359100000001 C 645.00624 626.1559100000001 645.72643 626.16591 646.45641 626.16591 C 662.5767774720908 626.1846301311908 678.3887509586388 621.7479970321422 692.14635 613.34591 Z" stroke-linecap="round" />
</g>
		<g transform="matrix(1 0 0 1 138.24 -106.91)"  >
<path style="stroke: none; stroke-width: 1; stroke-dasharray: none; stroke-linecap: butt; stroke-dashoffset: 0; stroke-linejoin: miter; stroke-miterlimit: 4; fill: rgb(63,61,86); fill-rule: nonzero; opacity: 1;" vector-effect="non-scaling-stroke"  transform=" translate(-738.24, -343.09)" d="M 725.78649 311.9659 C 725.03649 311.85589999999996 724.2762399999999 311.78589999999997 723.51649 311.73589999999996 C 732.1525247805042 331.6387886686491 732.7509588492818 354.1116020088336 725.18641 374.44589999999994 C 725.94667 374.35589999999996 726.69667 374.23589999999996 727.44667 374.0958999999999 C 742.5705216563636 371.1654294794542 753.3566245196384 357.7270317008675 752.9451343690067 342.3273816317454 C 752.5336442183749 326.92773156262336 741.0452772394907 314.0845242532651 725.78651 311.9658999999999 Z" stroke-linecap="round" />
</g>
		<g transform="matrix(1 0 0 1 -45.32 -106.91)"  >
<path style="stroke: none; stroke-width: 1; stroke-dasharray: none; stroke-linecap: butt; stroke-dashoffset: 0; stroke-linejoin: miter; stroke-miterlimit: 4; fill: rgb(63,61,86); fill-rule: nonzero; opacity: 1;" vector-effect="non-scaling-stroke"  transform=" translate(-554.68, -343.09)" d="M 569.39635 311.73592 C 568.63659 311.78592000000003 567.87635 311.85592 567.12635 311.96592000000004 C 551.867561717858 314.08452036989115 540.3791684822045 326.9277368384218 539.9676803394258 342.3274045255794 C 539.5561921966472 357.7270722127371 550.3423251129061 371.1654770699865 565.4662 374.09592000000004 C 566.2162 374.23592 566.9662 374.35592 567.72645 374.44592000000006 C 560.1619011507182 354.1116220088337 560.7603352194958 331.63880866864923 569.39637 311.7359200000001 Z" stroke-linecap="round" />
</g>
		<g transform="matrix(1 0 0 1 46.45 -104.83)"  >
<path style="stroke: none; stroke-width: 1; stroke-dasharray: none; stroke-linecap: butt; stroke-dashoffset: 0; stroke-linejoin: miter; stroke-miterlimit: 4; fill: rgb(63,61,86); fill-rule: nonzero; opacity: 1;" vector-effect="non-scaling-stroke"  transform=" translate(-646.45, -345.17)" d="M 725.78649 311.9659 C 708.7190766960972 271.1940761689356 663.5236872714586 249.9997517192856 621.2634074070727 262.9499239645245 C 579.0031275426868 275.90009620976343 553.4416362645195 318.77704546875276 562.1475131072498 362.1111650951717 C 570.8533899499802 405.4452847215907 610.9912326188895 435.1231586347882 654.9740402772363 430.74699068937554 C 698.956847935583 426.3708227439629 732.4599343954641 389.3658796716719 732.45641 345.1658999999999 C 732.4523636379045 333.76685745576583 730.1852308433232 322.4820431281428 725.78649 311.9658999999999 Z M 725.18639 374.4459 C 710.0238032913678 415.20459969334917 666.254260294904 437.64597418150595 624.3088119064332 426.167516276389 C 582.3633635179624 414.68905837127204 556.1190923152453 373.0882601568721 563.8224934183756 330.28833903739223 C 571.5258945215061 287.48841791791233 610.6284021779447 257.6491471826022 653.943751254798 261.5164680562508 C 697.2591003316513 265.38378892989937 730.4569951921405 301.6782507645773 730.4563899999999 345.1658999999999 C 730.4532404865929 355.1614985783309 728.6686714970253 365.0765367941367 725.18639 374.44594 Z" stroke-linecap="round" />
</g>
		<g transform="matrix(1 0 0 1 46.46 -106.83)"  >
<path style="stroke: none; stroke-width: 1; stroke-dasharray: none; stroke-linecap: butt; stroke-dashoffset: 0; stroke-linejoin: miter; stroke-miterlimit: 4; fill: rgb(63,61,86); fill-rule: nonzero; opacity: 1;" vector-effect="non-scaling-stroke"  transform=" translate(-646.46, -343.17)" d="M 690.45641 325.66592 L 602.45641 325.66592 C 592.7914268779612 325.66592 584.95641 333.5009368779611 584.95641 343.16592 C 584.95641 352.83090312203893 592.7914268779612 360.66592 602.45641 360.66592 L 690.45641 360.66592 C 700.1213931220389 360.66592 707.95641 352.83090312203893 707.95641 343.16592 C 707.95641 333.5009368779611 700.1213931220389 325.66592 690.45641 325.66592 Z" stroke-linecap="round" />
</g>
		<g transform="matrix(1 0 0 1 46.48 88.17)"  >
<path style="stroke: none; stroke-width: 1; stroke-dasharray: none; stroke-linecap: butt; stroke-dashoffset: 0; stroke-linejoin: miter; stroke-miterlimit: 4; fill: rgb(63,61,86); fill-rule: nonzero; opacity: 1;" vector-effect="non-scaling-stroke"  transform=" translate(-646.48, -538.17)" d="M 646.45641 448.16592 C 597.5597452949019 448.1882141619671 557.6268439537378 487.2478704475183 556.5236039587909 536.1320926242697 C 555.420363963844 585.0163148010212 593.5504751713953 625.8377304791713 642.3963499999999 628.06592 C 643.34655 628.11592 644.30651 628.14592 645.26647 628.14592 C 645.66637 628.16592 646.05647 628.16592 646.45641 628.16592 C 696.1620374847714 628.16592 736.45641 587.8715474847714 736.45641 538.16592 C 736.45641 488.4602925152286 696.1620374847714 448.16592 646.45641 448.16592 Z M 692.14635 613.34592 C 678.3887509586388 621.7480070321421 662.5767774720908 626.1846401311908 646.45641 626.16592 C 645.72641 626.16592 645.00622 626.15592 644.27624 626.13592 Q 643.81115 626.13592 643.34655 626.1059200000001 C 599.6662209200394 624.5876488902243 563.7109884024309 591.2581174845171 558.8910926135839 547.8179874170199 C 554.0711968247368 504.3778573495226 581.8457026014441 463.97719846901714 624.1307927853096 452.9206418694793 C 666.4158829691752 441.8640852699415 710.4111380260982 463.49863961237264 727.4715064587587 503.73817396154607 C 744.5318748914191 543.9777083107194 729.4928915799646 590.6410278462723 692.1463500000001 613.34592 Z" stroke-linecap="round" />
</g>
		<g transform="matrix(1 0 0 1 89.96 55.67)"  >
<path style="stroke: none; stroke-width: 1; stroke-dasharray: none; stroke-linecap: butt; stroke-dashoffset: 0; stroke-linejoin: miter; stroke-miterlimit: 4; fill: rgb(63,61,86); fill-rule: nonzero; opacity: 1;" vector-effect="non-scaling-stroke"  transform=" translate(-689.96, -505.67)" d="M 709.62316 515.99941 L 670.28966 515.99941 C 664.5826255376235 515.99941 659.95616 511.3729444623765 659.95616 505.66591 C 659.95616 499.9588755376235 664.5826255376235 495.33241 670.28966 495.33241 L 709.62316 495.33241 C 715.3301944623765 495.33241 719.9566599999999 499.9588755376235 719.95666 505.66591 C 719.95666 511.3729444623765 715.3301944623765 515.99941 709.62316 515.99941 Z" stroke-linecap="round" />
</g>
		<g transform="matrix(1 0 0 1 72.91 55.67)"  >
<circle style="stroke: none; stroke-width: 1; stroke-dasharray: none; stroke-linecap: butt; stroke-dashoffset: 0; stroke-linejoin: miter; stroke-miterlimit: 4; fill: rgb(242,242,242); fill-rule: nonzero; opacity: 1;" vector-effect="non-scaling-stroke"  cx="0" cy="0" r="5.24444" />
</g>
		<g transform="matrix(1 0 0 1 89.96 55.67)"  >
<circle style="stroke: none; stroke-width: 1; stroke-dasharray: none; stroke-linecap: butt; stroke-dashoffset: 0; stroke-linejoin: miter; stroke-miterlimit: 4; fill: rgb(242,242,242); fill-rule: nonzero; opacity: 1;" vector-effect="non-scaling-stroke"  cx="0" cy="0" r="5.24444" />
</g>
		<g transform="matrix(1 0 0 1 107 55.67)"  >
<circle style="stroke: none; stroke-width: 1; stroke-dasharray: none; stroke-linecap: butt; stroke-dashoffset: 0; stroke-linejoin: miter; stroke-miterlimit: 4; fill: rgb(142,70,158); fill-rule: nonzero; opacity: 1;" vector-effect="non-scaling-stroke"  cx="0" cy="0" r="5.24444" />
</g>
		<g transform="matrix(1 0 0 1 -334.87 122.82)"  >
<path style="stroke: none; stroke-width: 1; stroke-dasharray: none; stroke-linecap: butt; stroke-dashoffset: 0; stroke-linejoin: miter; stroke-miterlimit: 4; fill: rgb(242,242,242); fill-rule: nonzero; opacity: 1;" vector-effect="non-scaling-stroke"  transform=" translate(-265.13, -572.82)" d="M 340.81553 638.55356 C 349.80809000000005 630.9549199999999 355.27032 618.95129 353.83785 607.26568 C 352.40538 595.58007 343.53313 584.83739 332.02453 582.3559 C 320.51593 579.87441 307.39692 586.7435800000001 303.90138 597.98577 C 301.97762 576.31127 299.76083 553.72863 288.23728 535.27077 C 277.80299 518.55763 259.73061 506.59876999999994 240.14423 504.4593 C 220.55784999999997 502.31983 199.93590999999998 510.40029999999996 187.72061 525.85957 C 175.50531 541.3188399999999 172.51443 563.79345 181.06971 581.54198 C 187.37209 594.61671 198.98328999999998 604.34709 211.14893999999998 612.26325 C 249.96156 637.51855 298.10857999999996 646.0515399999999 343.92118 639.3094699999999 Z" stroke-linecap="round" />
</g>
		<g transform="matrix(1 0 0 1 -347.4 125.36)"  >
<path style="stroke: none; stroke-width: 1; stroke-dasharray: none; stroke-linecap: butt; stroke-dashoffset: 0; stroke-linejoin: miter; stroke-miterlimit: 4; fill: rgb(255,255,255); fill-rule: nonzero; opacity: 1;" vector-effect="non-scaling-stroke"  transform=" translate(-252.6, -575.36)" d="M 207.08924 510.8482 C 223.2504195699462 524.0117036439323 238.0766062699874 538.734069780778 251.3533499999999 554.8023499999999 C 264.63219002962194 570.8541339727072 276.32277310157053 588.1560632265631 286.2608899999999 606.4651100000001 C 291.81584518084156 616.7356509027558 296.8059928726848 627.301777888669 301.20906 638.11633 C 302.10679 640.3162400000001 298.53452 641.27385 297.64676999999995 639.0984100000001 C 289.8478722690997 620.0323988365872 280.19916451436643 601.7766186795268 268.83900000000006 584.5928400000001 C 257.5339886718808 567.4713196427817 244.59478256638224 551.4867993577473 230.20315999999983 536.8638399999998 C 222.06319227845765 528.5970905720709 213.4748428915587 520.7841615564369 204.47700000000015 513.4604300000001 C 202.6327 511.95862999999997 205.26014 509.35879 207.08923000000001 510.84819999999996 Z" stroke-linecap="round" />
</g>
		<g transform="matrix(1 0 0 1 -262.23 -158.14)"  >
<circle style="stroke: none; stroke-width: 1; stroke-dasharray: none; stroke-linecap: butt; stroke-dashoffset: 0; stroke-linejoin: miter; stroke-miterlimit: 4; fill: rgb(47,46,65); fill-rule: nonzero; opacity: 1;" vector-effect="non-scaling-stroke"  cx="0" cy="0" r="31" />
</g>
		<g transform="matrix(1 0 0 1 -188.9 -61.12)"  >
<path style="stroke: none; stroke-width: 1; stroke-dasharray: none; stroke-linecap: butt; stroke-dashoffset: 0; stroke-linejoin: miter; stroke-miterlimit: 4; fill: rgb(255,184,184); fill-rule: nonzero; opacity: 1;" vector-effect="non-scaling-stroke"  transform=" translate(-411.1, -388.88)" d="M 453.38374 405.36728 C 452.7896204578507 406.26068728889135 452.06542907535766 407.06037439783427 451.23512 407.73989 C 448.81606614328405 409.73434431945986 445.6610300608114 410.6020455885476 442.56228947181995 410.125100773877 C 439.4635488828285 409.64815595920646 436.71546367820423 407.8718716682761 435.00812 405.2423 C 434.81264230378656 404.93937637323165 434.63329920875714 404.62634042452964 434.47084 404.3045 L 385.62113 399.5915 C 377.7043061381948 398.79743076845676 371.24625347213106 392.90329817172795 369.73413 385.09176 L 366.96139999999997 370.47468000000003 L 386.02579 367.50883000000005 L 389.44694 379.21733000000006 L 437.07484 390.9164600000001 C 437.4436916827582 390.5927488235339 437.83480573281423 390.2953215685962 438.2453 390.0263700000001 C 442.62495526659495 387.1841140979179 448.3990682332204 387.8112998315335 452.0663298152636 391.5276140480663 C 455.7335913973068 395.2439282645991 456.28400475431704 401.025864586648 453.38381 405.3673700000001 Z" stroke-linecap="round" />
</g>
		<g transform="matrix(1 0 0 1 -225.07 -89.93)"  >
<path style="stroke: none; stroke-width: 1; stroke-dasharray: none; stroke-linecap: butt; stroke-dashoffset: 0; stroke-linejoin: miter; stroke-miterlimit: 4; fill: rgb(47,46,65); fill-rule: nonzero; opacity: 1;" vector-effect="non-scaling-stroke"  transform=" translate(-374.93, -360.07)" d="M 390.6179 377.45 L 369.3219 383.20282 C 366.9230100240785 383.84795356789164 364.4545996923348 382.4295222840047 363.80407 380.03209 L 356.34507 352.42026 C 354.69012737375664 346.2945533946146 357.92722897901467 339.90796429262997 363.8461423010658 337.6211364465808 C 369.7650556231169 335.33430860053164 376.4553036556591 337.8853727752276 379.34891000000005 343.53251 L 393.44936000000007 371.05371 C 394.06870504978883 372.26214440485836 394.10919236604485 373.68564692987746 393.55953366165323 374.9273301866824 C 393.0098749572617 376.1690134434873 391.92886475408244 377.09606015327915 390.6179 377.45 Z" stroke-linecap="round" />
</g>
		<g transform="matrix(1 0 0 1 -212.67 157.35)"  >
<polygon style="stroke: none; stroke-width: 1; stroke-dasharray: none; stroke-linecap: butt; stroke-dashoffset: 0; stroke-linejoin: miter; stroke-miterlimit: 4; fill: rgb(255,184,184); fill-rule: nonzero; opacity: 1;" vector-effect="non-scaling-stroke"  points="-9.04,23.64 3.21,23.64 9.05,-23.64 -9.05,-23.64 -9.04,23.64 " />
</g>
		<g transform="matrix(-1 0 0 -1 -205.08 184.93)"  >
<path style="stroke: none; stroke-width: 1; stroke-dasharray: none; stroke-linecap: butt; stroke-dashoffset: 0; stroke-linejoin: miter; stroke-miterlimit: 4; fill: rgb(47,46,65); fill-rule: nonzero; opacity: 1;" vector-effect="non-scaling-stroke"  transform=" translate(-394.92, -634.93)" d="M 375.65481 627.48572 L 414.18554 627.48572 L 414.18554 642.3725900000001 L 390.54167 642.3725900000001 C 382.31988424913396 642.3725900000001 375.65481 635.7075157508662 375.65481 627.4857300000001 L 375.65481 627.4857300000001 Z" stroke-linecap="round" />
</g>
		<g transform="matrix(1 0 0 1 -314.17 149.09)"  >
<polygon style="stroke: none; stroke-width: 1; stroke-dasharray: none; stroke-linecap: butt; stroke-dashoffset: 0; stroke-linejoin: miter; stroke-miterlimit: 4; fill: rgb(255,184,184); fill-rule: nonzero; opacity: 1;" vector-effect="non-scaling-stroke"  points="-16.82,19.95 -5.35,24.28 16.82,-17.89 -0.11,-24.28 -16.82,19.95 " />
</g>
		<g transform="matrix(-0.94 -0.35 0.35 -0.94 -316.81 178.6)"  >
<path style="stroke: none; stroke-width: 1; stroke-dasharray: none; stroke-linecap: butt; stroke-dashoffset: 0; stroke-linejoin: miter; stroke-miterlimit: 4; fill: rgb(47,46,65); fill-rule: nonzero; opacity: 1;" vector-effect="non-scaling-stroke"  transform=" translate(-283.19, -628.6)" d="M 263.92068 621.16128 L 302.45141 621.16128 L 302.45141 636.0481500000001 L 278.80754 636.0481500000001 C 270.58575424913397 636.0481500000001 263.92068 629.3830757508662 263.92068 621.1612900000001 L 263.92068 621.1612900000001 Z" stroke-linecap="round" />
</g>
		<g transform="matrix(1 0 0 1 -264.02 61.39)"  >
<path style="stroke: none; stroke-width: 1; stroke-dasharray: none; stroke-linecap: butt; stroke-dashoffset: 0; stroke-linejoin: miter; stroke-miterlimit: 4; fill: rgb(47,46,65); fill-rule: nonzero; opacity: 1;" vector-effect="non-scaling-stroke"  transform=" translate(-335.98, -511.39)" d="M 377.89481 620.00541 C 375.9452003276765 620.0039159062447 374.2186199622654 618.7463257202185 373.61917 616.89116 L 342.35062 520.3267 C 342.16094428123085 519.740972635505 341.6326927023854 519.3305667094925 341.0182559472891 519.291568019829 C 340.4038191921928 519.2525693301654 339.82791826748695 519.5928939980664 339.56570999999997 520.14994 L 296.23123 612.35112 C 295.2598039115567 614.4141585958981 292.8998133433475 615.4257187091027 290.73587 614.70659 L 273.669 609.01713 C 271.4196383893306 608.2626643181602 270.13974720296824 605.8941307572186 270.74126 603.59913 L 297.2857 503.05225999999993 C 300.0632583552529 492.4016017827282 302.069595642752 481.5646092516736 303.28912 470.6255 C 305.1506277671539 452.61189292909586 313.59599788341063 435.91934663848195 327.00591000000003 423.7484999999999 C 332.8610766937299 418.3840431170719 336.66730022187346 411.14948303304584 337.77178000000004 403.2856099999999 L 337.84332000000006 402.7826799999999 L 376.71709000000004 408.92036999999993 L 401.34063000000003 609.84908 C 401.6036895271681 612.0708319108212 400.2018447409947 614.1507571601618 398.04375000000005 614.74068 L 379.06988000000007 619.84908 C 378.68684458034363 619.9530135861041 378.2916957428079 620.0055837459857 377.89481 620.00541 Z" stroke-linecap="round" />
</g>
		<g transform="matrix(1 0 0 1 -249.92 -151.85)"  >
<circle style="stroke: none; stroke-width: 1; stroke-dasharray: none; stroke-linecap: butt; stroke-dashoffset: 0; stroke-linejoin: miter; stroke-miterlimit: 4; fill: rgb(255,184,184); fill-rule: nonzero; opacity: 1;" vector-effect="non-scaling-stroke"  cx="0" cy="0" r="24.56103" />
</g>
		<g transform="matrix(1 0 0 1 -245.73 -78.21)"  >
<path style="stroke: none; stroke-width: 1; stroke-dasharray: none; stroke-linecap: butt; stroke-dashoffset: 0; stroke-linejoin: miter; stroke-miterlimit: 4; fill: rgb(142,70,158); fill-rule: nonzero; opacity: 1;" vector-effect="non-scaling-stroke"  transform=" translate(-354.27, -371.79)" d="M 374.3013 413.20463 C 374.2244 413.20463 374.14749 413.20263 374.06986 413.19877 L 335.534 411.272 C 333.3103589721137 411.17163372871636 331.4985214021113 409.4521990225557 331.282 407.23685 L 326.01759 355.90872 C 325.2350636099988 348.27691724572804 328.28064139014714 340.7525315285317 334.15128179221136 335.8136711234572 C 340.0219221942756 330.8748107183828 347.956498953263 329.161796973015 355.34181 331.2388 L 355.34205000000003 331.2388 C 358.3555540330004 332.0641597532538 361.163853817857 333.5088030479799 363.58766 335.4805 C 390.69581000000005 357.74271 381.95509000000004 398.07865 378.63038 409.91068 C 378.0947164161853 411.85889331652066 376.3218098484602 413.2078786872595 374.3013 413.20463 Z" stroke-linecap="round" />
</g>
		<g transform="matrix(1 0 0 1 -271.12 -47.97)"  >
<path style="stroke: none; stroke-width: 1; stroke-dasharray: none; stroke-linecap: butt; stroke-dashoffset: 0; stroke-linejoin: miter; stroke-miterlimit: 4; fill: rgb(255,184,184); fill-rule: nonzero; opacity: 1;" vector-effect="non-scaling-stroke"  transform=" translate(-328.88, -402.03)" d="M 340.7764 447.67045 C 339.7034818325916 447.6706909256999 338.63654130517284 447.5107238289678 337.61087000000003 447.19584000000003 C 334.61036686852935 446.2866060980239 332.1402793893797 444.14047199427233 330.82088745504205 441.2963675211433 C 329.50149552070445 438.4522630480142 329.45813338548595 435.1803609298011 330.70169000000004 432.30229 C 330.84560871595437 431.9717411990283 331.0068867190039 431.6490249697289 331.18485000000004 431.33549000000005 L 308.04959 388.05424000000005 C 304.3253447191361 381.02310654834776 305.65530105669126 372.3814208073931 311.32132 366.7954500000001 L 321.95511 356.3901800000001 L 334.98465 370.6196700000001 L 327.13165 379.9536700000001 L 343.77374 426.0874500000001 C 344.2475630691211 426.21524188696895 344.71183630817956 426.37612021642394 345.16314 426.5689000000001 C 349.9554872433636 428.64085137010346 352.6317347071932 433.79557014651624 351.5690666120651 438.9073517440265 C 350.50639851693705 444.0191333415369 345.9974812481773 447.6801565885317 340.77642 447.6704600000001 Z" stroke-linecap="round" />
</g>
		<g transform="matrix(1 0 0 1 -268.02 -92.8)"  >
<path style="stroke: none; stroke-width: 1; stroke-dasharray: none; stroke-linecap: butt; stroke-dashoffset: 0; stroke-linejoin: miter; stroke-miterlimit: 4; fill: rgb(47,46,65); fill-rule: nonzero; opacity: 1;" vector-effect="non-scaling-stroke"  transform=" translate(-331.98, -357.2)" d="M 329.25165 379.94968 L 312.66564999999997 365.40603 C 310.79972892458534 363.7661499737308 310.61334903835 360.9253318488735 312.24902 359.05572 L 331.10596 337.55072 C 335.2893059762454 332.77975493638485 342.39961353072374 331.9371877413381 347.58215570730295 335.5983006572671 C 352.7646978838822 339.25941357319607 354.3467071134508 346.24251029277553 351.24802999999997 351.77972 L 336.14543 378.764 C 335.48239330616434 379.9490313604975 334.31965123095654 380.77125241452126 332.9813908119069 381.00141764547527 C 331.6431303928573 381.2315828764293 330.27250053847877 380.84507233656666 329.25165 379.94965 Z" stroke-linecap="round" />
</g>
		<g transform="matrix(1 0 0 1 -251.28 -157.56)"  >
<path style="stroke: none; stroke-width: 1; stroke-dasharray: none; stroke-linecap: butt; stroke-dashoffset: 0; stroke-linejoin: miter; stroke-miterlimit: 4; fill: rgb(47,46,65); fill-rule: nonzero; opacity: 1;" vector-effect="non-scaling-stroke"  transform=" translate(-348.72, -292.44)" d="M 334.27658 322.00531 C 336.51749 322.79989 339.26481 323.50046000000003 341.02821 321.85247 C 342.74974 320.24361 342.4361 317.30147 341.42196 315.13398 C 340.40782 312.96649 338.83496 311.03765 338.35276 308.67847 C 337.66161 305.29736 339.44855 301.78472 341.99942999999996 299.58036 C 344.5503099999999 297.376 347.76122999999995 296.21805 350.89579 295.10379 L 368.08894 288.99201 C 372.34475999999995 287.47917 376.93080999999995 285.70201 379.31237 281.72081 C 382.75837 275.9602 379.60807 267.72574999999995 373.95556999999997 264.36431999999996 C 368.30306999999993 261.00289 361.16328 261.62911999999994 355.06483 263.99271999999996 C 351.69183 265.29997999999995 348.48326 267.10135999999994 344.99505 268.0216 C 338.11078 269.83776 330.28316 268.20847999999995 324.23356 272.09009 C 318.9674 275.46900999999997 316.52482000000003 282.36346 316.70218 288.81440999999995 C 316.87953999999996 295.26535999999993 319.25474 301.40890999999993 321.76009 307.30860999999993 C 323.25059999999996 310.8185399999999 324.84283 314.3689099999999 327.36744999999996 317.1605599999999 C 329.89206999999993 319.9522099999999 333.54033999999996 321.9051099999999 337.1846 321.39143999999993 Z" stroke-linecap="round" />
</g>
		<g transform="matrix(1 0 0 1 -288.23 -173.14)"  >
<circle style="stroke: none; stroke-width: 1; stroke-dasharray: none; stroke-linecap: butt; stroke-dashoffset: 0; stroke-linejoin: miter; stroke-miterlimit: 4; fill: rgb(47,46,65); fill-rule: nonzero; opacity: 1;" vector-effect="non-scaling-stroke"  cx="0" cy="0" r="20" />
</g>
		<g transform="matrix(1 0 0 1 -144.63 -42.98)" id="a5b0fbf6-85a2-48e8-ad40-c81376cd9893-781"  >
<path style="stroke: none; stroke-width: 1; stroke-dasharray: none; stroke-linecap: butt; stroke-dashoffset: 0; stroke-linejoin: miter; stroke-miterlimit: 4; fill: rgb(63,61,86); fill-rule: nonzero; opacity: 1;" vector-effect="non-scaling-stroke"  transform=" translate(-455.37, -407.02)" d="M 473.97839 392.30638 L 473.62348 392.25759999999997 L 474.96002 382.53488999999996 C 475.3872273449832 379.42694543267254 473.2140798732905 376.5611314928336 470.10614 376.13388999999995 L 449.50657 373.30216999999993 C 446.398623918468 372.8749568721866 443.53280633306485 375.0481071083117 443.10557 378.15604999999994 L 435.77312 431.49650999999994 C 435.3459068721867 434.60445608153196 437.51905710831176 437.4702736669351 440.627 437.89750999999995 L 461.22656 440.72923 C 464.33450646147355 441.1564312714747 467.20031831334495 438.9832809059568 467.62756 435.87534 L 472.672 399.1784 L 473.02691000000004 399.22719 Z" stroke-linecap="round" />
</g>
		<g transform="matrix(1 0 0 1 -144.46 -42.96)" id="a5d1dbd7-b3f0-4599-af89-34309e57a462-782"  >
<path style="stroke: none; stroke-width: 1; stroke-dasharray: none; stroke-linecap: butt; stroke-dashoffset: 0; stroke-linejoin: miter; stroke-miterlimit: 4; fill: rgb(255,255,255); fill-rule: nonzero; opacity: 1;" vector-effect="non-scaling-stroke"  transform=" translate(-455.54, -407.04)" d="M 469.4586 378.98628 L 466.89401 378.63374000000005 C 467.0528163793207 379.25392401878497 466.8924588160369 379.9124691853945 466.4663038596133 380.39021350653786 C 466.0401489031896 380.8679578276812 465.40412532628517 381.10220191872463 464.7699 381.01499000000007 L 453.51342 379.46762000000007 C 452.8792291811837 379.3804041030302 452.33006487784314 378.9832126771637 452.0486686690326 378.40821634585177 C 451.76727246022205 377.8332200145398 451.79057047675764 377.15587249422924 452.11081 376.6015700000001 L 449.71532 376.2722700000001 C 448.6521898901283 376.1261231788587 447.57454634569416 376.4082906009901 446.71946033103023 377.05669821304576 C 445.86437431636625 377.70510582510144 445.3018905788756 378.66663903203255 445.15575 379.7297700000001 L 438.17193 430.534 C 437.86760675994464 432.74785492832245 439.4155856506055 434.7892425484568 441.62944 435.09357 L 461.37271999999996 437.80757 C 463.5865715199627 438.1118935307344 465.6279575825018 436.5639202983399 465.93228999999997 434.35007 L 465.93228999999997 434.35007 L 472.91610999999995 383.54572 C 473.2203908657484 381.33189247421694 471.6724216712704 379.2905534578351 469.45859999999993 378.98623000000003 Z" stroke-linecap="round" />
</g>
		<g transform="matrix(1 0 0 1 -144.54 -39.83)"  >
<circle style="stroke: none; stroke-width: 1; stroke-dasharray: none; stroke-linecap: butt; stroke-dashoffset: 0; stroke-linejoin: miter; stroke-miterlimit: 4; fill: rgb(142,70,158); fill-rule: nonzero; opacity: 1;" vector-effect="non-scaling-stroke"  cx="0" cy="0" r="11" />
</g>
		<g transform="matrix(1 0 0 1 -144.6 -39.82)"  >
<path style="stroke: none; stroke-width: 1; stroke-dasharray: none; stroke-linecap: butt; stroke-dashoffset: 0; stroke-linejoin: miter; stroke-miterlimit: 4; fill: rgb(255,255,255); fill-rule: nonzero; opacity: 1;" vector-effect="non-scaling-stroke"  transform=" translate(-455.4, -410.18)" d="M 454.36606 414.36216 C 454.11857261575597 414.36263162685583 453.8776440947111 414.2826075857186 453.67962 414.13416 L 453.66735 414.12495 L 451.08227 412.14572000000004 C 450.7546902709832 411.8968137801881 450.5852732055776 411.4916987008595 450.638135879669 411.0836934033305 C 450.6909985537604 410.67568810580156 450.9580648943235 410.32712542953186 451.3382617728431 410.1699213625114 C 451.71845865136265 410.0127172954909 452.15370164801527 410.07088862360774 452.47927 410.32242 L 454.15368 411.60634000000005 L 458.11059 406.44595000000004 C 458.29592900272786 406.20422801786316 458.56970269633484 406.0460343277545 458.87168118291197 406.00617135966496 C 459.17365966948915 405.9663083915754 459.4791051608556 406.0480416816431 459.72082 406.23339000000004 L 459.69622 406.26679 L 459.72146 406.23388 C 460.224145425013 406.6202237659779 460.3192346954899 407.3405688303964 459.93402 407.84412 L 455.27975 413.91396999999995 C 455.0615621350027 414.19745443719745 454.7237867185684 414.36314254135937 454.36606 414.36216 Z" stroke-linecap="round" />
</g>
		<g transform="matrix(1 0 0 1 2.97 191.95)"  >
<path style="stroke: none; stroke-width: 1; stroke-dasharray: none; stroke-linecap: butt; stroke-dashoffset: 0; stroke-linejoin: miter; stroke-miterlimit: 4; fill: rgb(204,204,204); fill-rule: nonzero; opacity: 1;" vector-effect="non-scaling-stroke"  transform=" translate(-602.97, -641.95)" d="M 1022.61917 643.144 L 183.32517000000007 643.144 C 182.66891998123495 643.1420981715289 182.1379306340089 642.6095677745319 182.1379306340089 641.953315 C 182.1379306340089 641.2970622254682 182.66891998123495 640.7645318284711 183.32517000000007 640.7626300000001 L 1022.61917 640.7626300000001 C 1023.2767671673523 640.7626300000001 1023.809855 641.2957178326478 1023.809855 641.953315 C 1023.8098550000001 642.6109121673522 1023.2767671673523 643.144 1022.61917 643.144 Z" stroke-linecap="round" />
</g>
</g>
</g>
</svg>