<?xml version="1.0" encoding="UTF-8" standalone="no" ?>
<!DOCTYPE svg PUBLIC "-//W3C//DTD SVG 1.1//EN" "http://www.w3.org/Graphics/SVG/1.1/DTD/svg11.dtd">
<svg xmlns="http://www.w3.org/2000/svg" xmlns:xlink="http://www.w3.org/1999/xlink" version="1.1" width="600" height="600" viewBox="0 0 600 600" xml:space="preserve">
<desc>Created with Fabric.js 5.2.4</desc>
<defs>
</defs>
<rect x="0" y="0" width="100%" height="100%" fill="transparent"></rect>
<g transform="matrix(1 0 0 1 300 300)" id="d0aa2b16-6e2d-4ca6-9cf5-7ad6f305588f"  >
<rect style="stroke: none; stroke-width: 1; stroke-dasharray: none; stroke-linecap: butt; stroke-dashoffset: 0; stroke-linejoin: miter; stroke-miterlimit: 4; fill: rgb(255,255,255); fill-rule: nonzero; opacity: 1; visibility: hidden;" vector-effect="non-scaling-stroke"  x="-300" y="-300" rx="0" ry="0" width="600" height="600" />
</g>
<g transform="matrix(Infinity NaN NaN Infinity 0 0)" id="df553593-6169-4c58-8c3d-9ac3a4269c59"  >
</g>
<g transform="matrix(0.68 0 0 0.68 300 300)"  >
<g style="" vector-effect="non-scaling-stroke"   >
		<g transform="matrix(1 0 0 1 -194.98 -15.07)"  >
<path style="stroke: none; stroke-width: 1; stroke-dasharray: none; stroke-linecap: butt; stroke-dashoffset: 0; stroke-linejoin: miter; stroke-miterlimit: 4; fill: rgb(63,61,86); fill-rule: nonzero; opacity: 1;" vector-effect="non-scaling-stroke"  transform=" translate(-215.14, -307.81)" d="M 215.14368 291.44366 C 213.33807 291.44366 211.86975999999999 292.91197 211.86975999999999 294.71758 L 211.86975999999999 320.90898 C 211.86975999999999 322.71459 213.33807 324.18289999999996 215.14368 324.18289999999996 C 216.94929 324.18289999999996 218.4176 322.71459 218.4176 320.90898 L 218.4176 294.71758 C 218.4176 292.91197 216.94929 291.44366 215.14368 291.44366 Z" stroke-linecap="round" />
</g>
		<g transform="matrix(1 0 0 1 30.16 -2.22)"  >
<path style="stroke: none; stroke-width: 1; stroke-dasharray: none; stroke-linecap: butt; stroke-dashoffset: 0; stroke-linejoin: miter; stroke-miterlimit: 4; fill: rgb(255,255,255); fill-rule: nonzero; opacity: 1;" vector-effect="non-scaling-stroke"  transform=" translate(-440.29, -320.67)" d="M 587.53737 0 L 293.03992 0 C 259.64375 0 232.57081 27.07294 232.57081 60.46911 L 232.57081 580.86906 C 232.57081 614.26516 259.64369999999997 641.33805 293.0398 641.33805 L 587.53738 641.33805 C 620.93355 641.33805 648.00649 614.2651099999999 648.00649 580.86894 L 648.00649 60.46911 C 648.00649 27.072940000000003 620.93355 0 587.53738 0 Z" stroke-linecap="round" />
</g>
		<g transform="matrix(1 0 0 1 30.16 0.78)"  >
<path style="stroke: none; stroke-width: 1; stroke-dasharray: none; stroke-linecap: butt; stroke-dashoffset: 0; stroke-linejoin: miter; stroke-miterlimit: 4; fill: rgb(63,61,86); fill-rule: nonzero; opacity: 1;" vector-effect="non-scaling-stroke"  transform=" translate(-440.29, -323.67)" d="M 587.53754 645.76932 L 293.03995 645.76932 C 258.90785 645.76932 231.13888999999998 618.00107 231.13888999999998 583.86896 L 231.13888999999998 63.4694 C 231.13888999999998 29.3373 258.90783999999996 1.5683399999999992 293.03995 1.5683399999999992 L 587.53754 1.5683399999999992 C 621.6696400000001 1.5683399999999992 649.4386000000001 29.33729 649.4386000000001 63.4694 L 649.4386000000001 583.86896 C 649.4386000000001 618.00106 621.66965 645.76932 587.53754 645.76932 Z M 293.03995 4.43215 C 260.48657 4.43215 234.00269999999998 30.91603 234.00269999999998 63.4694 L 234.00269999999998 583.86896 C 234.00269999999998 616.42234 260.48658 642.90551 293.03995 642.90551 L 587.53754 642.90551 C 620.09092 642.90551 646.57479 616.4223300000001 646.57479 583.86896 L 646.57479 63.4694 C 646.57479 30.916020000000003 620.09091 4.43215 587.53754 4.43215 L 293.03995 4.43215 Z" stroke-linecap="round" />
</g>
		<g transform="matrix(1 0 0 1 139.56 -205.19)"  >
<path style="stroke: none; stroke-width: 1; stroke-dasharray: none; stroke-linecap: butt; stroke-dashoffset: 0; stroke-linejoin: miter; stroke-miterlimit: 4; fill: rgb(230,230,230); fill-rule: nonzero; opacity: 1;" vector-effect="non-scaling-stroke"  transform=" translate(-549.68, -117.7)" d="M 608.86965 126.80419 L 490.49744999999996 126.80419 C 485.47671999999994 126.80419 481.39189999999996 122.71936000000001 481.39189999999996 117.69864000000001 C 481.39189999999996 112.67792000000001 485.47673 108.59309000000002 490.49744999999996 108.59309000000002 L 608.86965 108.59309000000002 C 613.8903799999999 108.59309000000002 617.9752 112.67792000000001 617.9752 117.69864000000001 C 617.9752 122.71936000000001 613.89037 126.80419 608.86965 126.80419 Z" stroke-linecap="round" />
</g>
		<g transform="matrix(1 0 0 1 30.16 -129.74)"  >
<path style="stroke: none; stroke-width: 1; stroke-dasharray: none; stroke-linecap: butt; stroke-dashoffset: 0; stroke-linejoin: miter; stroke-miterlimit: 4; fill: rgb(142,70,158); fill-rule: nonzero; opacity: 1;" vector-effect="non-scaling-stroke"  transform=" translate(-440.29, -193.15)" d="M 497.8209 198.4097 L 382.75748999999996 198.4097 C 379.85664999999995 198.4097 377.49629 196.04933 377.49629 193.14849999999998 C 377.49629 190.24766 379.85665 187.8884 382.75748999999996 187.8884 L 497.82089999999994 187.8884 C 500.72173999999995 187.8884 503.08099999999996 190.24767 503.08099999999996 193.14851 C 503.08099999999996 196.04934999999998 500.72173999999995 198.40971 497.82089999999994 198.40971 Z" stroke-linecap="round" />
</g>
		<g transform="matrix(1 0 0 1 -107.78 -296.06)"  >
<rect style="stroke: none; stroke-width: 1; stroke-dasharray: none; stroke-linecap: butt; stroke-dashoffset: 0; stroke-linejoin: miter; stroke-miterlimit: 4; fill: rgb(230,230,230); fill-rule: nonzero; opacity: 1;" vector-effect="non-scaling-stroke"  x="-33.29032" y="-4.26799" rx="0.31021" ry="0.31021" width="66.58064" height="8.53598" />
</g>
		<g transform="matrix(1 0 0 1 146.34 -298.62)"  >
<circle style="stroke: none; stroke-width: 1; stroke-dasharray: none; stroke-linecap: butt; stroke-dashoffset: 0; stroke-linejoin: miter; stroke-miterlimit: 4; fill: rgb(230,230,230); fill-rule: nonzero; opacity: 1;" vector-effect="non-scaling-stroke"  cx="0" cy="0" r="6.82878" />
</g>
		<g transform="matrix(1 0 0 1 165.12 -298.62)"  >
<circle style="stroke: none; stroke-width: 1; stroke-dasharray: none; stroke-linecap: butt; stroke-dashoffset: 0; stroke-linejoin: miter; stroke-miterlimit: 4; fill: rgb(230,230,230); fill-rule: nonzero; opacity: 1;" vector-effect="non-scaling-stroke"  cx="0" cy="0" r="6.82878" />
</g>
		<g transform="matrix(1 0 0 1 183.89 -298.62)"  >
<circle style="stroke: none; stroke-width: 1; stroke-dasharray: none; stroke-linecap: butt; stroke-dashoffset: 0; stroke-linejoin: miter; stroke-miterlimit: 4; fill: rgb(230,230,230); fill-rule: nonzero; opacity: 1;" vector-effect="non-scaling-stroke"  cx="0" cy="0" r="6.82878" />
</g>
		<g transform="matrix(1 0 0 1 30.16 -96.31)"  >
<path style="stroke: none; stroke-width: 1; stroke-dasharray: none; stroke-linecap: butt; stroke-dashoffset: 0; stroke-linejoin: miter; stroke-miterlimit: 4; fill: rgb(63,61,86); fill-rule: nonzero; opacity: 1;" vector-effect="non-scaling-stroke"  transform=" translate(-440.29, -226.57)" d="M 292.32311 226.57123 C 292.32311 227.51633 293.08206 228.2752 294.02716 228.2752 L 586.55021 228.2752 C 587.49523 228.2752 588.25418 227.51634 588.25418 226.57123 C 588.25418 225.62621000000001 587.49523 224.86726000000002 586.55021 224.86726000000002 L 294.02716 224.86726000000002 C 293.08205999999996 224.86726000000002 292.32311 225.62621000000001 292.32311 226.57123 Z" stroke-linecap="round" />
</g>
		<g transform="matrix(1 0 0 1 262.16 144.69)"  >
<path style="stroke: none; stroke-width: 1; stroke-dasharray: none; stroke-linecap: butt; stroke-dashoffset: 0; stroke-linejoin: miter; stroke-miterlimit: 4; fill: rgb(63,61,86); fill-rule: nonzero; opacity: 1;" vector-effect="non-scaling-stroke"  transform=" translate(-672.29, -467.57)" d="M 524.32311 467.57123 C 524.32311 468.51633000000004 525.0820600000001 469.27520000000004 526.0271600000001 469.27520000000004 L 818.5502100000001 469.27520000000004 C 819.4952300000001 469.27520000000004 820.2541800000001 468.51634 820.2541800000001 467.57123 C 820.2541800000001 466.62621 819.4952300000001 465.86726 818.5502100000001 465.86726 L 526.0271600000001 465.86726 C 525.0820600000001 465.86726 524.32311 466.62621 524.32311 467.57123 Z" stroke-linecap="round" />
</g>
		<g transform="matrix(1 0 0 1 60.6 32.35)"  >
<path style="stroke: none; stroke-width: 1; stroke-dasharray: none; stroke-linecap: butt; stroke-dashoffset: 0; stroke-linejoin: miter; stroke-miterlimit: 4; fill: rgb(142,70,158); fill-rule: nonzero; opacity: 1;" vector-effect="non-scaling-stroke"  transform=" translate(-470.72, -355.24)" d="M 558.49856 360.4981 L 382.95029999999997 360.4981 C 380.04945999999995 360.49809000000005 377.6891 358.13773000000003 377.6891 355.23689 C 377.6891 352.33605 380.04946 349.97679 382.95029999999997 349.97679 L 558.49856 349.97679 C 561.3994 349.97679999999997 563.75866 352.33607 563.75866 355.23690999999997 C 563.75866 358.13775 561.3994 360.49810999999994 558.49856 360.49810999999994 Z" stroke-linecap="round" />
</g>
		<g transform="matrix(1 0 0 1 -80.42 31.7)"  >
<circle style="stroke: none; stroke-width: 1; stroke-dasharray: none; stroke-linecap: butt; stroke-dashoffset: 0; stroke-linejoin: miter; stroke-miterlimit: 4; fill: rgb(142,70,158); fill-rule: nonzero; opacity: 1;" vector-effect="non-scaling-stroke"  cx="0" cy="0" r="12.88711" />
</g>
		<g transform="matrix(1 0 0 1 -70.76 30.99)"  >
<path style="stroke: none; stroke-width: 1; stroke-dasharray: none; stroke-linecap: butt; stroke-dashoffset: 0; stroke-linejoin: miter; stroke-miterlimit: 4; fill: rgb(63,61,86); fill-rule: nonzero; opacity: 1;" vector-effect="non-scaling-stroke"  transform=" translate(-339.37, -353.87)" d="M 328.27371 376.06554 L 328.27371 373.20174 C 338.93255999999997 373.20174 347.60437 364.52993 347.60437 353.87107999999995 C 347.60437 343.2122299999999 338.93256 334.5404199999999 328.27371 334.5404199999999 L 328.27371 331.6766199999999 C 340.51198999999997 331.6766199999999 350.46818 341.6328099999999 350.46818 353.8710899999999 C 350.46818 366.10936999999996 340.51199 376.06555999999995 328.27371 376.06555999999995 Z" stroke-linecap="round" />
</g>
		<g transform="matrix(1 0 0 1 -240.58 -3.31)" id="uuid-9e40be56-d004-4de8-84cd-e8041855938b-880"  >
<path style="stroke: none; stroke-width: 1; stroke-dasharray: none; stroke-linecap: butt; stroke-dashoffset: 0; stroke-linejoin: miter; stroke-miterlimit: 4; fill: rgb(255,182,182); fill-rule: nonzero; opacity: 1;" vector-effect="non-scaling-stroke"  transform=" translate(-169.54, -319.57)" d="M 174.78102 302.61468 C 180.03781 297.26504 187.05915000000002 295.64107 190.46315 298.98709 C 193.86715 302.33311000000003 192.36457000000001 309.38100000000003 187.10519000000002 314.73184000000003 C 185.03360000000004 316.89810000000006 182.47336 318.53676 179.63865 319.51070000000004 L 157.07916 341.89608000000004 L 146.80001000000001 331.08566 L 170.13100000000003 310.16537 C 171.05575000000002 307.31322 172.65025000000003 304.72407 174.78103000000002 302.61468 Z" stroke-linecap="round" />
</g>
		<g transform="matrix(1 0 0 1 -284.92 3.2)"  >
<path style="stroke: none; stroke-width: 1; stroke-dasharray: none; stroke-linecap: butt; stroke-dashoffset: 0; stroke-linejoin: miter; stroke-miterlimit: 4; fill: rgb(230,230,230); fill-rule: nonzero; opacity: 1;" vector-effect="non-scaling-stroke"  transform=" translate(-125.2, -326.08)" d="M 102.63289 284.13678 L 126.28601 336.60979 L 164.05642 316.16483999999997 L 177.57376 323.33898999999997 C 177.57376 323.33898999999997 146.69727 374.95885999999996 125.55614 369.08261 C 104.41502 363.20635999999996 66.87386000000001 309.92454 73.63784 293.48015999999996 C 80.40182999999999 277.03577999999993 102.63289 284.13676999999996 102.63289 284.13676999999996 Z" stroke-linecap="round" />
</g>
		<g transform="matrix(1 0 0 1 -44.29 321.13)"  >
<path style="stroke: none; stroke-width: 1; stroke-dasharray: none; stroke-linecap: butt; stroke-dashoffset: 0; stroke-linejoin: miter; stroke-miterlimit: 4; fill: rgb(63,61,86); fill-rule: nonzero; opacity: 1;" vector-effect="non-scaling-stroke"  transform=" translate(-365.84, -644.01)" d="M 0 644.013 C 0 644.67303 0.53003 645.2030000000001 1.19006 645.2030000000001 L 730.48004 645.2030000000001 C 731.1400100000001 645.2030000000001 731.6700400000001 644.67303 731.6700400000001 644.013 C 731.6700400000001 643.35303 731.1400100000001 642.823 730.48004 642.823 L 1.19006 642.823 C 0.5300299999999999 642.823 0 643.35303 0 644.013 Z" stroke-linecap="round" />
</g>
		<g transform="matrix(1 0 0 1 -191.8 1.06)"  >
<ellipse style="stroke: none; stroke-width: 1; stroke-dasharray: none; stroke-linecap: butt; stroke-dashoffset: 0; stroke-linejoin: miter; stroke-miterlimit: 4; fill: rgb(142,70,158); fill-rule: nonzero; opacity: 1;" vector-effect="non-scaling-stroke"  cx="0" cy="0" rx="64.899" ry="63.53157" />
</g>
		<g transform="matrix(1 0 0 1 -305.14 277.7)"  >
<polygon style="stroke: none; stroke-width: 1; stroke-dasharray: none; stroke-linecap: butt; stroke-dashoffset: 0; stroke-linejoin: miter; stroke-miterlimit: 4; fill: rgb(255,182,182); fill-rule: nonzero; opacity: 1;" vector-effect="non-scaling-stroke"  points="-12.72,33.26 4.52,33.26 12.73,-33.26 -12.73,-33.26 -12.72,33.26 " />
</g>
		<g transform="matrix(1 0 0 1 -289.91 306.21)"  >
<path style="stroke: none; stroke-width: 1; stroke-dasharray: none; stroke-linecap: butt; stroke-dashoffset: 0; stroke-linejoin: miter; stroke-miterlimit: 4; fill: rgb(47,46,65); fill-rule: nonzero; opacity: 1;" vector-effect="non-scaling-stroke"  transform=" translate(-120.22, -629.09)" d="M 151.35145 633.45696 L 151.35145 633.45696 C 151.88846 634.3613799999999 152.17181 637.28046 152.17181 638.33222 L 152.17181 638.33222 C 152.17181 641.56508 149.5511 644.1859000000001 146.31813 644.1859000000001 L 92.90641 644.1859000000001 C 90.70097 644.1859000000001 88.91301 642.39804 88.91301 640.1925000000001 L 88.91301 637.9688000000001 C 88.91301 637.9688000000001 86.27079 631.2854200000002 91.71066 623.0477900000001 C 91.71066 623.0477900000001 98.4717 629.4979800000001 108.57443 619.39525 L 111.55364 613.99819 L 133.11898 629.76999 L 145.07232 631.2413300000001 C 147.68747 631.5632 150.00603999999998 631.1913800000001 151.35124 633.45695 L 151.35145 633.45695 Z" stroke-linecap="round" />
</g>
		<g transform="matrix(1 0 0 1 -319.44 -51.48)"  >
<polygon style="stroke: none; stroke-width: 1; stroke-dasharray: none; stroke-linecap: butt; stroke-dashoffset: 0; stroke-linejoin: miter; stroke-miterlimit: 4; fill: rgb(255,182,182); fill-rule: nonzero; opacity: 1;" vector-effect="non-scaling-stroke"  points="14.62,16.1 14.97,-7.16 0.63,-16.1 -14.97,2.98 14.62,16.1 " />
</g>
		<g transform="matrix(1 0 0 1 -311.35 -51.48)"  >
<polygon style="stroke: none; stroke-width: 1; stroke-dasharray: none; stroke-linecap: butt; stroke-dashoffset: 0; stroke-linejoin: miter; stroke-miterlimit: 4; fill: rgb(0,0,0); fill-rule: nonzero; opacity: 0.1;" vector-effect="non-scaling-stroke"  points="6.53,16.1 7.46,-6.58 -7.46,-16.1 -2.39,11.97 6.53,16.1 " />
</g>
		<g transform="matrix(1 0 0 1 -300.89 180)"  >
<path style="stroke: none; stroke-width: 1; stroke-dasharray: none; stroke-linecap: butt; stroke-dashoffset: 0; stroke-linejoin: miter; stroke-miterlimit: 4; fill: rgb(47,46,65); fill-rule: nonzero; opacity: 1;" vector-effect="non-scaling-stroke"  transform=" translate(-109.24, -502.89)" d="M 140.15003 441.32461 L 116.38442999999998 603.0466 L 86.56729999999999 603.0466 L 90.53210999999999 510.73174 L 92.61882999999999 462.19196 L 86.56729999999999 439.08717 C 86.56729999999999 439.08717 83.80816999999999 433.95146 81.48376999999999 427.72603000000004 C 78.86377999999999 420.70069 76.79442999999999 412.27841 79.86655999999999 408.28462 C 80.99687999999999 406.81229 83.93570999999999 405.72255 87.92945999999999 404.91106 C 90.36979 404.41257 93.21009 404.02418 96.27641999999999 403.72279000000003 C 113.90931999999998 401.97804 138.99074 403.06778 138.99074 403.06778 L 139.62833999999998 424.10902000000004 L 139.98194999999998 435.85851 L 140.15004 441.32459 Z" stroke-linecap="round" />
</g>
		<g transform="matrix(1 0 0 1 -330.82 271.4)"  >
<polygon style="stroke: none; stroke-width: 1; stroke-dasharray: none; stroke-linecap: butt; stroke-dashoffset: 0; stroke-linejoin: miter; stroke-miterlimit: 4; fill: rgb(255,182,182); fill-rule: nonzero; opacity: 1;" vector-effect="non-scaling-stroke"  points="-17.43,31.66 -0.36,34.16 17.43,-30.46 -7.76,-34.16 -17.43,31.66 " />
</g>
		<g transform="matrix(1 0 0 1 -321 303.71)"  >
<path style="stroke: none; stroke-width: 1; stroke-dasharray: none; stroke-linecap: butt; stroke-dashoffset: 0; stroke-linejoin: miter; stroke-miterlimit: 4; fill: rgb(47,46,65); fill-rule: nonzero; opacity: 1;" vector-effect="non-scaling-stroke"  transform=" translate(-89.13, -626.6)" d="M 120.39886 634.14701 L 120.39886 634.14701 C 120.7986 635.1199300000001 120.65434 638.04917 120.50136 639.08975 L 120.50136 639.08975 C 120.03112 642.28823 117.05706 644.49997 113.85848 644.02971 L 61.01482 636.2606000000001 C 58.83284 635.9398000000001 57.32394 633.9108900000001 57.64476 631.7288000000001 L 57.96821 629.5287500000001 C 57.96821 629.5287500000001 56.32623 622.5321200000001 62.90647 615.1733700000001 C 62.90647 615.1733700000001 68.65738 622.5384000000001 80.12217 614.0126300000001 L 83.85473 609.1063200000001 L 102.8966 627.8472100000001 L 114.50880000000001 631.0416000000001 C 117.04932000000001 631.7404400000001 119.39731 631.7098200000001 120.39866 634.1469700000001 L 120.39887 634.1470000000002 Z" stroke-linecap="round" />
</g>
		<g transform="matrix(1 0 0 1 -309.5 175.96)"  >
<path style="stroke: none; stroke-width: 1; stroke-dasharray: none; stroke-linecap: butt; stroke-dashoffset: 0; stroke-linejoin: miter; stroke-miterlimit: 4; fill: rgb(47,46,65); fill-rule: nonzero; opacity: 1;" vector-effect="non-scaling-stroke"  transform=" translate(-100.63, -498.85)" d="M 140.52406 414.3539 L 137.26439 442.42621 L 119.48777999999999 501.5821 L 90.22450999999998 598.97301 L 60.72777999999998 594.6382100000001 L 87.20076999999998 456.16281000000004 L 84.57952999999998 432.41803000000004 C 84.57952999999998 432.41803000000004 83.72587999999998 430.05777000000006 82.74734999999998 426.60236000000003 C 80.80504999999998 419.76634 78.36895999999999 408.63386 81.04904999999998 402.95526 C 81.41093999999998 402.18334 81.86522999999998 401.51358 82.42723999999998 400.97126000000003 C 83.48136999999998 399.94897000000003 85.62382999999998 399.32819 88.49423999999999 398.99890000000005 C 100.49199999999999 397.64292000000006 125.20063999999999 401.52126000000004 136.19535 403.42513 L 140.52406 414.35389000000004 Z" stroke-linecap="round" />
</g>
		<g transform="matrix(1 0 0 1 -306.76 27.15)"  >
<path style="stroke: none; stroke-width: 1; stroke-dasharray: none; stroke-linecap: butt; stroke-dashoffset: 0; stroke-linejoin: miter; stroke-miterlimit: 4; fill: rgb(230,230,230); fill-rule: nonzero; opacity: 1;" vector-effect="non-scaling-stroke"  transform=" translate(-103.36, -350.03)" d="M 78.99709 269.45877 L 107.97953 283.37034 C 107.97953 283.37034 138.70091 374.37519 138.70091 379.01238 C 138.70091 383.64957 147.39564 386.54781 142.1788 391.76465 C 136.96196 396.98149 151.88877 401.3996 143.84572 405.56668 C 135.80267 409.73376 85.62884 432.52716000000004 80.04974 430.4717 C 64.66231 424.80264999999997 80.7018 403.97151 80.7018 403.97151 C 80.7018 403.97151 69.14306 394.66290000000004 70.882 390.02571 C 72.62095000000001 385.38852 60.44832 296.70227 60.44832 296.70227 L 78.99708000000001 269.45878 Z" stroke-linecap="round" />
</g>
		<g transform="matrix(1 0 0 1 -254.11 39.21)" id="uuid-73aedec7-8a7b-498d-9bbc-62d5085a8040-881"  >
<path style="stroke: none; stroke-width: 1; stroke-dasharray: none; stroke-linecap: butt; stroke-dashoffset: 0; stroke-linejoin: miter; stroke-miterlimit: 4; fill: rgb(255,182,182); fill-rule: nonzero; opacity: 1;" vector-effect="non-scaling-stroke"  transform=" translate(-156.02, -362.1)" d="M 167.30945 349.6482 C 174.50227999999998 347.52317999999997 181.42912 349.51198 182.78075 354.08977 C 184.13238 358.66756 179.39727000000002 364.09979999999996 172.20159 366.22461999999996 C 169.33885 367.11281999999994 166.30503000000002 367.30254999999994 163.35396 366.77788999999996 L 132.76393000000002 375.39681999999993 L 129.02530000000002 360.95559999999995 L 159.57858000000002 353.99206999999996 C 161.77165000000002 351.94746999999995 164.42258 350.45795 167.30946000000003 349.6482 Z" stroke-linecap="round" />
</g>
		<g transform="matrix(1 0 0 1 -292.36 15.64)"  >
<path style="stroke: none; stroke-width: 1; stroke-dasharray: none; stroke-linecap: butt; stroke-dashoffset: 0; stroke-linejoin: miter; stroke-miterlimit: 4; fill: rgb(230,230,230); fill-rule: nonzero; opacity: 1;" vector-effect="non-scaling-stroke"  transform=" translate(-117.76, -338.52)" d="M 113.20352 298.46878 L 108.40899999999999 355.82642999999996 L 151.35532 356.28820999999994 L 159.69022 369.12238999999994 C 159.69022 369.12238999999994 107.63683 399.26228999999995 92.00668000000002 383.8617699999999 C 76.37653000000002 368.4612599999999 69.42194000000002 303.65442999999993 83.31849000000001 292.5614099999999 C 97.21504000000002 281.4683899999999 113.20352000000001 298.4687699999999 113.20352000000001 298.4687699999999 Z" stroke-linecap="round" />
</g>
		<g transform="matrix(1 0 0 1 -305.42 -76.72)"  >
<circle style="stroke: none; stroke-width: 1; stroke-dasharray: none; stroke-linecap: butt; stroke-dashoffset: 0; stroke-linejoin: miter; stroke-miterlimit: 4; fill: rgb(255,182,182); fill-rule: nonzero; opacity: 1;" vector-effect="non-scaling-stroke"  cx="0" cy="0" r="24.8276" />
</g>
		<g transform="matrix(1 0 0 1 -305.38 -97.3)"  >
<path style="stroke: none; stroke-width: 1; stroke-dasharray: none; stroke-linecap: butt; stroke-dashoffset: 0; stroke-linejoin: miter; stroke-miterlimit: 4; fill: rgb(47,46,65); fill-rule: nonzero; opacity: 1;" vector-effect="non-scaling-stroke"  transform=" translate(-104.75, -225.59)" d="M 91.31667 246.26078 C 91.31667 246.26078 95.22653 239.80951000000002 97.37695000000001 236.48613 C 99.52737 233.16275000000002 99.52737 228.2939 99.52737 228.2939 C 99.52737 228.2939 119.46765 227.88444 126.11441 233.55374 C 132.76117 239.22304 137.453 218.30529 131.00173 211.07205 C 131.00173 211.07205 128.26483000000002 214.19994 128.85131 215.37288999999998 L 129.43779 216.54584999999997 C 129.43779 216.54584999999997 126.11441 203.25232999999997 116.53526000000001 200.71092 C 116.53526000000001 200.71092 111.20644000000001 203.46320999999998 112.69789 205.01945999999998 C 114.18934 206.57571 101.28681 195.6281 97.37695 202.07936999999998 C 97.37695 202.07936999999998 87.7978 201.88387999999998 88.97075 205.40274999999997 L 88.38427 207.55316999999997 C 88.38427 207.55316999999997 80.17357 205.01175999999995 79.58709 211.07203999999996 C 79.58709 211.07203999999996 82.51948 211.07203999999996 84.08343 212.63597999999996 C 85.64737000000001 214.19991999999996 78.41414 218.69625999999997 78.41414 218.69625999999997 C 78.41414 218.69625999999997 70.00794 241.76442999999998 81.34653 251.14808999999997 C 81.34653 251.14808999999997 81.44428 239.90724999999998 85.94061 242.64414999999997 C 90.43694 245.38104999999996 91.31667 246.26076999999998 91.31667 246.26076999999998 Z" stroke-linecap="round" />
</g>
		<g transform="matrix(1 0 0 1 -292.51 -60.69)"  >
<polygon style="stroke: none; stroke-width: 1; stroke-dasharray: none; stroke-linecap: butt; stroke-dashoffset: 0; stroke-linejoin: miter; stroke-miterlimit: 4; fill: rgb(47,46,65); fill-rule: nonzero; opacity: 1;" vector-effect="non-scaling-stroke"  points="-2.67,-1.27 -3.57,1.08 3.12,1.27 3.57,-0.88 -2.67,-1.27 " />
</g>
		<g transform="matrix(1 0 0 1 -302.43 -67.92)"  >
<path style="stroke: none; stroke-width: 1; stroke-dasharray: none; stroke-linecap: butt; stroke-dashoffset: 0; stroke-linejoin: miter; stroke-miterlimit: 4; fill: rgb(47,46,65); fill-rule: nonzero; opacity: 1;" vector-effect="non-scaling-stroke"  transform=" translate(-107.69, -254.97)" d="M 121.62981 252.51655 C 121.62981 252.51655 111.60102 249.77965 105.58375000000001 257.99035 L 104.24658000000001 259.55429 C 104.24658000000001 259.55429 91.54345 245.28330999999997 92.65776000000001 240.005 L 89.98342000000001 240.20049 L 87.30908000000001 253.885 C 87.30908000000001 253.885 95.77783000000001 268.54697 107.58952000000001 269.13345 C 107.58952000000001 269.13345 118.95548000000001 271.87035 121.40696000000001 267.17852 C 123.85844000000002 262.48669 128.07913000000002 255.56833999999998 128.07913000000002 255.56833999999998 L 121.62982000000002 252.51654999999997 Z M 119.80567 265.61458 L 113.16105 265.61458 C 111.60102 265.61458 107.5895 259.94529 107.5895 259.94529 C 109.81812000000001 256.42642 116.50398 256.23092 116.50398 256.23092 L 123.76451 256.23092 L 124.30414 258.38134 L 119.80566 265.61458000000005 Z" stroke-linecap="round" />
</g>
		<g transform="matrix(1 0 0 1 194.56 290.09)"  >
<polygon style="stroke: none; stroke-width: 1; stroke-dasharray: none; stroke-linecap: butt; stroke-dashoffset: 0; stroke-linejoin: miter; stroke-miterlimit: 4; fill: rgb(160,97,106); fill-rule: nonzero; opacity: 1;" vector-effect="non-scaling-stroke"  points="0.91,22.76 -9.99,20.41 -6.09,-22.76 9.99,-19.29 0.91,22.76 " />
</g>
		<g transform="matrix(1 0 0 1 177.58 308.51)"  >
<path style="stroke: none; stroke-width: 1; stroke-dasharray: none; stroke-linecap: butt; stroke-dashoffset: 0; stroke-linejoin: miter; stroke-miterlimit: 4; fill: rgb(47,46,65); fill-rule: nonzero; opacity: 1;" vector-effect="non-scaling-stroke"  transform=" translate(-587.71, -631.4)" d="M 568.30337 627.42054 L 568.30337 627.42054 C 567.84043 627.91886 567.2627 629.72521 567.11906 630.39 L 567.11906 630.39 C 566.67757 632.4333799999999 567.97612 634.44781 570.01957 634.88931 L 603.77935 642.1834200000001 C 605.17334 642.4846000000001 606.5476 641.59873 606.8488 640.20468 L 607.15248 638.79915 C 607.15248 638.79915 609.73525 634.93564 607.42185 628.98602 C 607.42185 628.98602 602.26756 632.13966 597.26163 624.3743900000001 L 596.11561 620.5562400000001 L 580.33101 627.5800300000001 L 572.57476 626.8776200000001 C 570.8778599999999 626.7239300000001 569.46314 626.1722800000001 568.30349 627.4205700000001 L 568.30336 627.4205400000001 Z" stroke-linecap="round" />
</g>
		<g transform="matrix(1 0 0 1 183.88 287.25)"  >
<polygon style="stroke: none; stroke-width: 1; stroke-dasharray: none; stroke-linecap: butt; stroke-dashoffset: 0; stroke-linejoin: miter; stroke-miterlimit: 4; fill: rgb(160,97,106); fill-rule: nonzero; opacity: 1;" vector-effect="non-scaling-stroke"  points="-7.9,22.3 -17,15.85 3.57,-22.3 17,-12.78 -7.9,22.3 " />
</g>
		<g transform="matrix(1 0 0 1 161.15 301.12)"  >
<path style="stroke: none; stroke-width: 1; stroke-dasharray: none; stroke-linecap: butt; stroke-dashoffset: 0; stroke-linejoin: miter; stroke-miterlimit: 4; fill: rgb(47,46,65); fill-rule: nonzero; opacity: 1;" vector-effect="non-scaling-stroke"  transform=" translate(-571.28, -624.01)" d="M 555.08568 610.11394 L 555.08568 610.11394 C 554.46401 610.38991 553.22211 611.82322 552.82849 612.3778699999999 L 552.82849 612.3778699999999 C 551.61859 614.0827099999999 552.01976 616.4455899999999 553.72465 617.6555299999999 L 581.8911 637.6449699999998 C 583.0541300000001 638.4703599999998 584.66611 638.1966899999999 585.4915400000001 637.0335999999999 L 586.3237600000001 635.8609399999999 C 586.3237600000001 635.8609399999999 590.2183900000001 633.32535 590.4326500000001 626.9453799999999 C 590.4326500000001 626.9453799999999 584.45325 627.8165299999998 582.9065800000001 618.7079299999999 L 583.3553700000001 614.7468399999999 L 566.0803500000001 614.9931599999999 L 559.2261500000001 611.2954999999998 C 557.7266000000001 610.4865099999998 556.6430700000001 609.4226999999998 555.0857900000001 610.1139999999998 L 555.0856800000001 610.1139199999998 Z" stroke-linecap="round" />
</g>
		<g transform="matrix(1 0 0 1 266 102.24)"  >
<path style="stroke: none; stroke-width: 1; stroke-dasharray: none; stroke-linecap: butt; stroke-dashoffset: 0; stroke-linejoin: miter; stroke-miterlimit: 4; fill: rgb(47,46,65); fill-rule: nonzero; opacity: 1;" vector-effect="non-scaling-stroke"  transform=" translate(-676.13, -425.13)" d="M 717.11687 419.00777 C 717.11687 419.00777 734.07621 442.06536 700.15753 467.98845 L 630.90688 445.86007 L 655.63926 394.2754 L 677.54508 382.26252999999997 L 717.11688 419.00777 Z" stroke-linecap="round" />
</g>
		<g transform="matrix(1 0 0 1 216.89 200)"  >
<polyline style="stroke: none; stroke-width: 1; stroke-dasharray: none; stroke-linecap: butt; stroke-dashoffset: 0; stroke-linejoin: miter; stroke-miterlimit: 4; fill: rgb(47,46,65); fill-rule: nonzero; opacity: 1;" vector-effect="non-scaling-stroke"  points="3.89,-77.02 -22.97,-24.73 -39.93,84.09 -18.73,85.5 2.47,-17.67 39.93,-73.49 13.78,-85.5 " />
</g>
		<g transform="matrix(1 0 0 1 237.03 204.95)"  >
<path style="stroke: none; stroke-width: 1; stroke-dasharray: none; stroke-linecap: butt; stroke-dashoffset: 0; stroke-linejoin: miter; stroke-miterlimit: 4; fill: rgb(47,46,65); fill-rule: nonzero; opacity: 1;" vector-effect="non-scaling-stroke"  transform=" translate(-647.16, -527.83)" d="M 700.15753 451.56325 L 700.15753 467.98843999999997 L 652.10606 520.76383 C 652.10606 520.76383 652.10606 560.33563 633.73344 578.70825 L 612.53426 611.21366 L 594.16164 601.32071 L 621.0139300000001 506.63104 L 669.0654000000001 444.44678 L 700.1575300000001 451.56325 Z" stroke-linecap="round" />
</g>
		<g transform="matrix(1 0 0 1 273.42 -22.98)"  >
<path style="stroke: none; stroke-width: 1; stroke-dasharray: none; stroke-linecap: butt; stroke-dashoffset: 0; stroke-linejoin: miter; stroke-miterlimit: 4; fill: rgb(160,97,106); fill-rule: nonzero; opacity: 1;" vector-effect="non-scaling-stroke"  transform=" translate(-683.55, -299.9)" d="M 666.01149 288.72346 L 673.29827 323.23428 L 701.07912 316.44527 C 701.07912 316.44527 687.34658 287.88337 690.07912 276.56835 L 666.01149 288.72346 Z" stroke-linecap="round" />
</g>
		<g transform="matrix(1 0 0 1 273.42 -22.98)"  >
<path style="stroke: none; stroke-width: 1; stroke-dasharray: none; stroke-linecap: butt; stroke-dashoffset: 0; stroke-linejoin: miter; stroke-miterlimit: 4; fill: rgb(0,0,0); fill-rule: nonzero; opacity: 0.1;" vector-effect="non-scaling-stroke"  transform=" translate(-683.55, -299.9)" d="M 666.01149 288.72346 L 673.29827 323.23428 L 701.07912 316.44527 C 701.07912 316.44527 687.34658 287.88337 690.07912 276.56835 L 666.01149 288.72346 Z" stroke-linecap="round" />
</g>
		<g transform="matrix(1 0 0 1 277.31 38.18)"  >
<path style="stroke: none; stroke-width: 1; stroke-dasharray: none; stroke-linecap: butt; stroke-dashoffset: 0; stroke-linejoin: miter; stroke-miterlimit: 4; fill: rgb(230,230,230); fill-rule: nonzero; opacity: 1;" vector-effect="non-scaling-stroke"  transform=" translate(-687.44, -361.06)" d="M 692.3845 293.9326 L 671.18532 303.82554999999996 C 671.18532 303.82554999999996 660.27971 310.49132999999995 660.0794000000001 314.93147 C 659.8790900000001 319.37161 661.2923700000001 340.57079 661.2923700000001 340.57079 C 661.2923700000001 340.57079 652.8127000000001 349.05046 658.4658100000001 366.00981 L 655.6392500000002 394.27538000000004 L 719.2367900000002 428.19407 L 713.5836800000002 368.83637 L 716.4102400000002 313.7185 L 692.3845000000001 293.9326 Z" stroke-linecap="round" />
</g>
		<g transform="matrix(1 0 0 1 300.64 117.99)" id="uuid-8e851e4b-a66f-4616-8a31-24a5e3f3093d-882"  >
<path style="stroke: none; stroke-width: 1; stroke-dasharray: none; stroke-linecap: butt; stroke-dashoffset: 0; stroke-linejoin: miter; stroke-miterlimit: 4; fill: rgb(160,97,106); fill-rule: nonzero; opacity: 1;" vector-effect="non-scaling-stroke"  transform=" translate(-710.76, -440.87)" d="M 711.41349 454.76606 C 708.9314 460.46097 703.98104 463.79647 700.35702 462.21625 C 696.7330000000001 460.63603 695.80814 454.73924 698.29188 449.04264 C 699.25282 446.75347 700.748 444.72771 702.65233 443.13486 L 713.47378 419.13812 L 724.62651 424.45634 L 712.7744100000001 447.54825 C 712.9037200000001 450.02836 712.4370600000001 452.50336 711.4134900000001 454.76607 Z" stroke-linecap="round" />
</g>
		<g transform="matrix(1 0 0 1 309.82 55.25)"  >
<path style="stroke: none; stroke-width: 1; stroke-dasharray: none; stroke-linecap: butt; stroke-dashoffset: 0; stroke-linejoin: miter; stroke-miterlimit: 4; fill: rgb(230,230,230); fill-rule: nonzero; opacity: 1;" vector-effect="non-scaling-stroke"  transform=" translate(-719.94, -378.14)" d="M 700.15753 317.2517 C 700.15753 317.2517 715.7035999999999 307.35875000000004 721.3567099999999 318.66498 C 727.0098199999999 329.97121000000004 739.7293299999999 387.91563 739.7293299999999 387.91563 L 721.3567099999999 443.0335 L 704.3973699999999 435.96711 L 719.2367999999999 376.64835999999997 L 700.1575399999999 317.25170999999995 Z" stroke-linecap="round" />
</g>
		<g transform="matrix(1 0 0 1 214.84 108.97)" id="uuid-35301953-803a-439b-9845-5bf97a98fdf5-883"  >
<path style="stroke: none; stroke-width: 1; stroke-dasharray: none; stroke-linecap: butt; stroke-dashoffset: 0; stroke-linejoin: miter; stroke-miterlimit: 4; fill: rgb(160,97,106); fill-rule: nonzero; opacity: 1;" vector-effect="non-scaling-stroke"  transform=" translate(-624.96, -431.86)" d="M 620.48064 445.8694 C 616.07509 450.24935 610.2441 451.52651 607.45714 448.72233 C 604.67017 445.91815 605.98277 440.09539 610.3904699999999 435.71447 C 612.1271599999999 433.94032 614.26347 432.60787 616.62068 431.82862 L 635.52152 413.50634 L 643.93057 422.55922000000004 L 624.40491 439.66061 C 623.61144 442.01392000000004 622.2658 444.14293000000004 620.48063 445.86940000000004 Z" stroke-linecap="round" />
</g>
		<g transform="matrix(1 0 0 1 244.77 53.36)"  >
<path style="stroke: none; stroke-width: 1; stroke-dasharray: none; stroke-linecap: butt; stroke-dashoffset: 0; stroke-linejoin: miter; stroke-miterlimit: 4; fill: rgb(230,230,230); fill-rule: nonzero; opacity: 1;" vector-effect="non-scaling-stroke"  transform=" translate(-654.9, -376.24)" d="M 660.67726 313.88028 C 660.67726 313.88028 687.7805800000001 312.77185000000003 688.8708200000001 325.36549 C 689.9610600000001 337.95914000000005 671.4329000000001 394.15253 671.4329000000001 394.15253 L 634.0468400000001 438.62516 L 620.8836100000001 425.80788 L 656.5326100000001 376.12818000000004 L 660.6772700000001 313.88027000000005 Z" stroke-linecap="round" />
</g>
		<g transform="matrix(1 0 0 1 242.99 121.07)"  >
<path style="stroke: none; stroke-width: 1; stroke-dasharray: none; stroke-linecap: butt; stroke-dashoffset: 0; stroke-linejoin: miter; stroke-miterlimit: 4; fill: rgb(142,70,158); fill-rule: nonzero; opacity: 1;" vector-effect="non-scaling-stroke"  transform=" translate(-653.12, -443.96)" d="M 738.93506 463.12731 L 565.62664 435.17409000000004 C 562.76281 434.71218000000005 560.80842 432.00609000000003 561.27033 429.14226 C 561.7322399999999 426.27843 564.4381599999999 424.32512 567.3019899999999 424.78703 L 740.61041 452.74025 C 743.47424 453.20216 745.42772 455.907 744.96581 458.77082 C 744.5039 461.63465 741.79889 463.58921000000004 738.93506 463.1273 Z" stroke-linecap="round" />
</g>
		<g transform="matrix(1 0 0 1 103.88 97.98)"  >
<circle style="stroke: none; stroke-width: 1; stroke-dasharray: none; stroke-linecap: butt; stroke-dashoffset: 0; stroke-linejoin: miter; stroke-miterlimit: 4; fill: rgb(142,70,158); fill-rule: nonzero; opacity: 1;" vector-effect="non-scaling-stroke"  cx="0" cy="0" r="12.88711" />
</g>
		<g transform="matrix(1 0 0 1 111.91 97.18)"  >
<path style="stroke: none; stroke-width: 1; stroke-dasharray: none; stroke-linecap: butt; stroke-dashoffset: 0; stroke-linejoin: miter; stroke-miterlimit: 4; fill: rgb(63,61,86); fill-rule: nonzero; opacity: 1;" vector-effect="non-scaling-stroke"  transform=" translate(-522.03, -420.07)" d="M 509.16881 441.83656 L 509.62482 439.0093 C 520.14768 440.70655 530.08958 433.52692 531.78694 423.00337 C 533.48419 412.48051000000004 526.30387 402.5385 515.7810099999999 400.84125 L 516.2370199999999 398.01399 C 528.3191499999999 399.96274 536.5629399999999 411.37725 534.6141999999999 423.45937999999995 C 532.6654499999999 435.54150999999996 521.2509399999999 443.78529999999995 509.1688099999999 441.83655999999996 Z" stroke-linecap="round" />
</g>
		<g transform="matrix(1 0 0 1 258.66 -48.17)"  >
<circle style="stroke: none; stroke-width: 1; stroke-dasharray: none; stroke-linecap: butt; stroke-dashoffset: 0; stroke-linejoin: miter; stroke-miterlimit: 4; fill: rgb(160,97,106); fill-rule: nonzero; opacity: 1;" vector-effect="non-scaling-stroke"  cx="0" cy="0" r="21.34417" />
</g>
		<g transform="matrix(1 0 0 1 255.49 -73.51)"  >
<path style="stroke: none; stroke-width: 1; stroke-dasharray: none; stroke-linecap: butt; stroke-dashoffset: 0; stroke-linejoin: miter; stroke-miterlimit: 4; fill: rgb(47,46,65); fill-rule: nonzero; opacity: 1;" vector-effect="non-scaling-stroke"  transform=" translate(-665.61, -249.37)" d="M 681.40367 274.71441 C 681.40367 274.71441 668.07897 262.61938 659.5413000000001 266.88820999999996 C 651.00363 271.15703999999994 646.7348000000001 274.00292999999994 646.7348000000001 274.00292999999994 C 646.7348000000001 274.00292999999994 639.62008 263.3308399999999 650.2921600000001 254.08169999999993 C 650.2921600000001 254.08169999999993 628.5704700000001 244.59166999999994 644.4116200000001 229.77118999999993 C 660.25277 214.95071999999993 674.4822200000001 220.64248999999992 674.4822200000001 220.64248999999992 C 674.4822200000001 220.64248999999992 693.6919800000001 229.18015999999992 680.1740000000001 246.25549999999993 C 680.1740000000001 246.25549999999993 699.8673900000001 258.7450099999999 689.6649600000001 279.1804699999999 C 689.6649600000001 279.1804699999999 688.71167 266.1767299999999 685.8657800000001 269.7340899999999 C 683.0198900000001 273.29144999999994 681.40367 274.7143999999999 681.40367 274.7143999999999 Z" stroke-linecap="round" />
</g>
		<g transform="matrix(1 0 0 1 -192.45 -2.16)"  >
<path style="stroke: none; stroke-width: 1; stroke-dasharray: none; stroke-linecap: butt; stroke-dashoffset: 0; stroke-linejoin: miter; stroke-miterlimit: 4; fill: rgb(255,255,255); fill-rule: nonzero; opacity: 1;" vector-effect="non-scaling-stroke"  transform=" translate(-217.68, -320.73)" d="M 240.62026 347.86716 C 232.46076 327.80584 224.30114 307.74464 216.14164 287.68344 C 215.01469 284.91271 211.48444999999998 284.81433000000004 210.38459 287.68344 C 202.32251 308.71599000000003 197.0541 330.66268 194.52133 353.03948 C 194.09001 356.85091 200.06363000000002 356.82018000000005 200.49155000000002 353.03948 C 201.48270000000002 344.28298 202.95412000000002 335.59195 204.84314 326.9936 C 211.56669 327.34633 218.34550000000002 326.59204 224.83389 324.79582 C 228.17708 333.01532 231.52026999999998 341.2347 234.86334 349.45421 C 236.29188 352.96648 242.06959 351.43044 240.62027 347.86715 Z M 206.19686000000002 321.0914 C 208.20783 312.86012 210.61865 304.72661000000005 213.41598000000002 296.72368 L 222.56627000000003 319.22061 C 217.20677000000003 320.62729 211.72568000000004 321.25308 206.19686000000004 321.09141 Z" stroke-linecap="round" />
</g>
		<g transform="matrix(1 0 0 1 -158 24)"  >
<circle style="stroke: none; stroke-width: 1; stroke-dasharray: none; stroke-linecap: butt; stroke-dashoffset: 0; stroke-linejoin: miter; stroke-miterlimit: 4; fill: rgb(255,255,255); fill-rule: nonzero; opacity: 1;" vector-effect="non-scaling-stroke"  cx="0" cy="0" r="6" />
</g>
		<g transform="matrix(1 0 0 1 -221 -29)"  >
<circle style="stroke: none; stroke-width: 1; stroke-dasharray: none; stroke-linecap: butt; stroke-dashoffset: 0; stroke-linejoin: miter; stroke-miterlimit: 4; fill: rgb(255,255,255); fill-rule: nonzero; opacity: 1;" vector-effect="non-scaling-stroke"  cx="0" cy="0" r="6" />
</g>
</g>
</g>
</svg>