<?xml version="1.0" encoding="UTF-8" standalone="no" ?>
<!DOCTYPE svg PUBLIC "-//W3C//DTD SVG 1.1//EN" "http://www.w3.org/Graphics/SVG/1.1/DTD/svg11.dtd">
<svg xmlns="http://www.w3.org/2000/svg" xmlns:xlink="http://www.w3.org/1999/xlink" version="1.1" width="600" height="600" viewBox="0 0 600 600" xml:space="preserve">
<desc>Created with Fabric.js 5.2.4</desc>
<defs>
</defs>
<rect x="0" y="0" width="100%" height="100%" fill="transparent"></rect>
<g transform="matrix(1 0 0 1 300 300)" id="e18d5f2a-1398-41c3-9815-09a350ebf722"  >
<rect style="stroke: none; stroke-width: 1; stroke-dasharray: none; stroke-linecap: butt; stroke-dashoffset: 0; stroke-linejoin: miter; stroke-miterlimit: 4; fill: rgb(255,255,255); fill-rule: nonzero; opacity: 1; visibility: hidden;" vector-effect="non-scaling-stroke"  x="-300" y="-300" rx="0" ry="0" width="600" height="600" />
</g>
<g transform="matrix(Infinity NaN NaN Infinity 0 0)" id="ed8ab0f6-e5b6-422a-9dae-1ed13e4dd5a4"  >
</g>
<g transform="matrix(0.83 0 0 0.83 300 300)"  >
<g style="" vector-effect="non-scaling-stroke"   >
		<g transform="matrix(1 0 0 1 39.24 -75.65)"  >
<circle style="stroke: none; stroke-width: 1; stroke-dasharray: none; stroke-linecap: butt; stroke-dashoffset: 0; stroke-linejoin: miter; stroke-miterlimit: 4; fill: rgb(242,242,242); fill-rule: nonzero; opacity: 1;" vector-effect="non-scaling-stroke"  cx="0" cy="0" r="254.00001" />
</g>
		<g transform="matrix(1 0 0 1 -27.42 -217.87)"  >
<path style="stroke: none; stroke-width: 1; stroke-dasharray: none; stroke-linecap: butt; stroke-dashoffset: 0; stroke-linejoin: miter; stroke-miterlimit: 4; fill: rgb(202,202,202); fill-rule: nonzero; opacity: 1;" vector-effect="non-scaling-stroke"  transform=" translate(-265.82, -111.78)" d="M 498.46363 113.58835 L 33.17063 113.58835 C 32.17289 113.56702 31.381320000000002 112.74089000000001 31.402660000000004 111.74314000000001 C 31.423350000000003 110.77543000000001 32.202920000000006 109.99587000000001 33.17063 109.97518000000001 L 498.46363 109.97518000000001 C 499.46137000000004 109.99651000000001 500.25294 110.82264 500.23157000000003 111.82039 C 500.21088000000003 112.7881 499.43134000000003 113.56766 498.46363 113.58835 Z" stroke-linecap="round" />
</g>
		<g transform="matrix(1 0 0 1 -17.66 -137.68)"  >
<rect style="stroke: none; stroke-width: 1; stroke-dasharray: none; stroke-linecap: butt; stroke-dashoffset: 0; stroke-linejoin: miter; stroke-miterlimit: 4; fill: rgb(255,255,255); fill-rule: nonzero; opacity: 1;" vector-effect="non-scaling-stroke"  x="-81.805735" y="-17.493195" rx="17.49318" ry="17.49318" width="163.61147" height="34.98639" />
</g>
		<g transform="matrix(1 0 0 1 -17.66 -67.71)"  >
<path style="stroke: none; stroke-width: 1; stroke-dasharray: none; stroke-linecap: butt; stroke-dashoffset: 0; stroke-linejoin: miter; stroke-miterlimit: 4; fill: rgb(255,255,255); fill-rule: nonzero; opacity: 1;" vector-effect="non-scaling-stroke"  transform=" translate(-275.58, -261.94)" d="M 128.17493 244.44534 L 422.98542 244.44534 C 432.64664 244.44534 440.47857999999997 252.27731 440.47857999999997 261.93853 L 440.47857999999997 261.93853 C 440.47857999999997 271.59975000000003 432.64664 279.43172000000004 422.98542 279.43172000000004 L 128.17493 279.43172000000004 C 118.51370999999999 279.43172000000004 110.68175 271.59975000000003 110.68175 261.93853 L 110.68175 261.93853 C 110.68175 252.27731 118.51370999999999 244.44534000000002 128.17493 244.44534000000002 Z" stroke-linecap="round" />
</g>
		<g transform="matrix(1 0 0 1 -17.66 2.26)"  >
<path style="stroke: none; stroke-width: 1; stroke-dasharray: none; stroke-linecap: butt; stroke-dashoffset: 0; stroke-linejoin: miter; stroke-miterlimit: 4; fill: rgb(255,255,255); fill-rule: nonzero; opacity: 1;" vector-effect="non-scaling-stroke"  transform=" translate(-275.58, -331.91)" d="M 128.17493 314.41812 L 422.98542 314.41812 C 432.64664 314.41812 440.47857999999997 322.25009 440.47857999999997 331.91130999999996 L 440.47857999999997 331.91130999999996 C 440.47857999999997 341.57253 432.64664 349.4045 422.98542 349.4045 L 128.17493 349.4045 C 118.51370999999999 349.4045 110.68175 341.57253 110.68175 331.91130999999996 L 110.68175 331.91130999999996 C 110.68175 322.25008999999994 118.51370999999999 314.41811999999993 128.17493 314.41811999999993 Z" stroke-linecap="round" />
</g>
		<g transform="matrix(1 0 0 1 -237.19 287.09)"  >
<path style="stroke: none; stroke-width: 1; stroke-dasharray: none; stroke-linecap: butt; stroke-dashoffset: 0; stroke-linejoin: miter; stroke-miterlimit: 4; fill: rgb(242,242,242); fill-rule: nonzero; opacity: 1;" vector-effect="non-scaling-stroke"  transform=" translate(-56.05, -616.74)" d="M 91.64085 657.75932 L 90.947 657.69139 C 67.40632000000001 655.2626799999999 46.12565 642.6021 32.75855 623.07304 C 29.09717 617.63145 26.135559999999998 611.75053 23.943550000000002 605.56895 L 23.732860000000002 604.97929 L 24.356610000000003 604.92881 C 31.803600000000003 604.32957 39.45393 603.06589 42.85246000000001 602.46464 L 20.93773000000001 595.03953 L 20.80223000000001 594.3892 C 19.50297000000001 588.28514 22.04835000000001 582.0046199999999 27.23073000000001 578.52744 C 32.42714000000001 574.88297 39.31804000000001 574.7663299999999 44.634780000000006 578.23295 C 47.020770000000006 579.75694 49.516400000000004 581.26634 51.92967000000001 582.72654 C 60.22288000000001 587.7429 68.79847000000001 592.92991 75.22795 600.02775 C 84.97746000000001 611.00553 89.25093000000001 625.79759 86.85795 640.28337 L 91.64085 657.75932 Z" stroke-linecap="round" />
</g>
		<g transform="matrix(1 0 0 1 -113.97 296.38)"  >
<polygon style="stroke: none; stroke-width: 1; stroke-dasharray: none; stroke-linecap: butt; stroke-dashoffset: 0; stroke-linejoin: miter; stroke-miterlimit: 4; fill: rgb(160,97,106); fill-rule: nonzero; opacity: 1;" vector-effect="non-scaling-stroke"  points="-7.97,20.83 2.83,20.83 7.97,-20.83 -7.97,-20.83 -7.97,20.83 " />
</g>
		<g transform="matrix(1 0 0 1 -105.71 319.5)"  >
<path style="stroke: none; stroke-width: 1; stroke-dasharray: none; stroke-linecap: butt; stroke-dashoffset: 0; stroke-linejoin: miter; stroke-miterlimit: 4; fill: rgb(47,46,65); fill-rule: nonzero; opacity: 1;" vector-effect="non-scaling-stroke"  transform=" translate(-187.53, -649.15)" d="M 170.9192 658.12816 L 204.13356 658.12694 L 204.13356 657.70696 C 204.13306999999998 650.56731 198.34523 644.77959 191.20558 644.77923 L 191.20479 644.77923 L 185.13777 640.1764499999999 L 173.81806999999998 644.7798999999999 L 170.91866 644.7800199999999 L 170.91921 658.12816 Z" stroke-linecap="round" />
</g>
		<g transform="matrix(1 0 0 1 -189.62 273.87)"  >
<polygon style="stroke: none; stroke-width: 1; stroke-dasharray: none; stroke-linecap: butt; stroke-dashoffset: 0; stroke-linejoin: miter; stroke-miterlimit: 4; fill: rgb(160,97,106); fill-rule: nonzero; opacity: 1;" vector-effect="non-scaling-stroke"  points="-18.88,13.42 -10.24,19.9 18.88,-10.34 6.12,-19.9 -18.88,13.42 " />
</g>
		<g transform="matrix(1 0 0 1 -200.86 300.71)"  >
<path style="stroke: none; stroke-width: 1; stroke-dasharray: none; stroke-linecap: butt; stroke-dashoffset: 0; stroke-linejoin: miter; stroke-miterlimit: 4; fill: rgb(47,46,65); fill-rule: nonzero; opacity: 1;" vector-effect="non-scaling-stroke"  transform=" translate(-92.38, -630.36)" d="M 77.67448 625.72966 L 104.24348 645.66154 L 104.49556000000001 645.3255399999999 C 108.77986000000001 639.6141799999999 107.62355000000001 631.5112099999999 101.91277000000001 627.2261699999999 L 101.91213 627.2256799999999 L 99.82134 619.9029299999999 L 88.00399 616.7919099999998 L 85.68468 615.0519799999998 L 77.67449 625.7296499999999 Z" stroke-linecap="round" />
</g>
		<g transform="matrix(1 0 0 1 -142.71 195.93)"  >
<path style="stroke: none; stroke-width: 1; stroke-dasharray: none; stroke-linecap: butt; stroke-dashoffset: 0; stroke-linejoin: miter; stroke-miterlimit: 4; fill: rgb(47,46,65); fill-rule: nonzero; opacity: 1;" vector-effect="non-scaling-stroke"  transform=" translate(-150.53, -525.58)" d="M 120.64463 451.35271 C 120.64463 451.35271 121.24088 467.61693 121.99293 480.66008 C 122.11628 482.79924 117.10472 485.12309 117.23451 487.45018 C 117.3206 488.99413 118.26259 490.49504 118.35011 492.1049 C 118.44246 493.80386999999996 117.14189 495.30771999999996 117.23451 497.06474 C 117.32503 498.78141 118.80873 500.75003999999996 118.89824 502.50717999999995 C 119.86141 521.41648 123.35283 544.05351 119.85664 550.3815699999999 C 118.13365 553.5002799999999 96.17131 596.7060299999999 96.17131 596.7060299999999 C 96.17131 596.7060299999999 108.40797 615.0610099999999 111.90416 608.9426599999999 C 116.52187 600.8616699999999 152.11031 563.05521 152.11031 555.8355399999999 C 152.11031 548.62466 160.34377 494.5823099999999 160.34377 494.5823099999999 L 166.0848 526.5639999999999 L 168.71719 532.9005499999998 L 167.89004 536.6205199999998 L 169.59121 541.6409699999998 L 169.68312999999998 546.6093499999998 L 171.33932 555.8354899999998 C 171.33932 555.8354899999998 166.35733 627.7170799999998 169.16298999999998 629.7186099999998 C 171.97737999999998 631.7289899999998 185.60384999999997 635.3387899999998 187.212 631.7289899999998 C 188.81154999999998 628.1191899999999 199.22279999999998 556.7095199999999 199.22279999999998 556.7095199999999 C 199.22279999999998 556.7095199999999 200.90089999999998 523.9852799999999 202.71901999999997 493.56840999999986 C 202.82381999999998 491.80284999999986 204.06508999999997 489.67015999999984 204.16122 487.93077999999986 C 204.27487 485.91179999999986 203.48825 483.28966999999983 203.59303999999997 481.33177999999987 C 203.70668999999998 479.08549999999985 204.70308999999997 477.5034699999999 204.79921999999996 475.35325999999986 C 205.54213999999996 458.7376599999999 201.37160999999998 438.5041399999999 200.04311999999996 436.51133999999985 C 196.03109999999995 430.4979099999998 192.42134999999996 425.69059999999985 192.42134999999996 425.69059999999985 C 192.42134999999996 425.69059999999985 138.38576999999995 407.93656999999985 123.94649999999996 425.97684999999984 L 120.64464999999996 451.35269999999986 Z" stroke-linecap="round" />
</g>
		<g transform="matrix(1 0 0 1 -132.5 30.26)"  >
<path style="stroke: none; stroke-width: 1; stroke-dasharray: none; stroke-linecap: butt; stroke-dashoffset: 0; stroke-linejoin: miter; stroke-miterlimit: 4; fill: rgb(63,61,86); fill-rule: nonzero; opacity: 1;" vector-effect="non-scaling-stroke"  transform=" translate(-160.74, -359.91)" d="M 174.53779 284.10378 L 153.11689 279.8196 L 143.12049000000002 293.38615999999996 L 143.12049000000002 293.38615999999996 C 124.46787000000002 311.72673999999995 124.18690000000002 327.91369 127.51670000000001 353.85997999999995 L 127.51670000000001 390.27550999999994 L 125.10670000000002 414.68737999999996 C 125.10670000000002 414.68737999999996 116.57514000000002 432.53258999999997 125.37458000000002 436.68744 C 134.17402000000004 440.84229 191.97315000000003 440.4881 197.49158000000003 438.82953 C 203.01001000000002 437.17096 198.22675000000004 435.13471 196.77759000000003 427.40502999999995 C 194.05548000000005 412.88573999999994 195.87628000000004 419.88940999999994 196.06360000000004 415.26653999999996 C 198.74945000000002 348.95291 192.49347000000003 321.72864 191.85816000000003 314.57277999999997 L 180.96418000000003 294.81419999999997 L 174.53779000000003 284.10378 Z" stroke-linecap="round" />
</g>
		<g transform="matrix(1 0 0 1 -34.91 17.59)"  >
<path style="stroke: none; stroke-width: 1; stroke-dasharray: none; stroke-linecap: butt; stroke-dashoffset: 0; stroke-linejoin: miter; stroke-miterlimit: 4; fill: rgb(160,97,106); fill-rule: nonzero; opacity: 1;" vector-effect="non-scaling-stroke"  transform=" translate(-258.33, -347.24)" d="M 287.43909 337.57097 C 285.20661 341.80104 279.96765000000005 343.4204 275.73761 341.18791 C 275.28662 340.94987 274.85748 340.6725 274.45532000000003 340.35895999999997 L 228.19488 369.73204 L 228.32824000000002 353.73964 L 273.26666 327.66118 C 276.46759000000003 324.07231 281.97180000000003 323.75786 285.56067 326.95879 C 288.56372 329.63723000000005 289.34027000000003 334.02449 287.43909 337.57097000000005 Z" stroke-linecap="round" />
</g>
		<g transform="matrix(1 0 0 1 -89.99 10.57)"  >
<path style="stroke: none; stroke-width: 1; stroke-dasharray: none; stroke-linecap: butt; stroke-dashoffset: 0; stroke-linejoin: miter; stroke-miterlimit: 4; fill: rgb(63,61,86); fill-rule: nonzero; opacity: 1;" vector-effect="non-scaling-stroke"  transform=" translate(-203.25, -340.22)" d="M 157.62488 302.62425 L 152.35822 302.06618000000003 C 147.49188999999998 301.56145000000004 142.71729 303.64559 139.77875 307.55718 C 138.65326 309.04064 137.84485 310.73971 137.40384 312.54882000000003 L 137.40067 312.56329000000005 C 136.07959 318.00863000000004 138.15161999999998 323.71530000000007 142.65869999999998 327.0444600000001 L 160.84901 340.45547000000005 C 173.61445 357.70446000000004 197.60554 369.14819000000006 225.74732999999998 378.44525000000004 L 269.49006999999995 351.27859000000007 L 254.01820999999995 332.54016000000007 L 224.01484999999997 348.61996000000005 L 179.41651999999996 314.0962200000001 L 179.39081999999996 314.07547000000005 L 162.41657999999995 303.1394700000001 L 157.62488999999997 302.6242700000001 Z" stroke-linecap="round" />
</g>
		<g transform="matrix(1 0 0 1 -125.94 -81.04)"  >
<circle style="stroke: none; stroke-width: 1; stroke-dasharray: none; stroke-linecap: butt; stroke-dashoffset: 0; stroke-linejoin: miter; stroke-miterlimit: 4; fill: rgb(160,97,106); fill-rule: nonzero; opacity: 1;" vector-effect="non-scaling-stroke"  cx="0" cy="0" r="24.9798" />
</g>
		<g transform="matrix(1 0 0 1 -125.81 -55.72)"  >
<path style="stroke: none; stroke-width: 1; stroke-dasharray: none; stroke-linecap: butt; stroke-dashoffset: 0; stroke-linejoin: miter; stroke-miterlimit: 4; fill: rgb(47,46,65); fill-rule: nonzero; opacity: 1;" vector-effect="non-scaling-stroke"  transform=" translate(-167.43, -273.93)" d="M 167.8769 273.59047 C 167.67555000000002 273.59709 167.4737 273.60155 167.2721 273.60704 C 167.1858 273.83092 167.09271999999999 274.05287 166.9853 274.27061 L 167.8769 273.59045999999995 Z" stroke-linecap="round" />
</g>
		<g transform="matrix(1 0 0 1 -118.42 -79.99)"  >
<path style="stroke: none; stroke-width: 1; stroke-dasharray: none; stroke-linecap: butt; stroke-dashoffset: 0; stroke-linejoin: miter; stroke-miterlimit: 4; fill: rgb(47,46,65); fill-rule: nonzero; opacity: 1;" vector-effect="non-scaling-stroke"  transform=" translate(-174.82, -249.66)" d="M 174.73243 249.29823 C 174.77160999999998 249.54434999999998 174.83155 249.78669 174.91156999999998 250.02272 C 174.87855 249.77541 174.81849 249.53246 174.73243 249.29823 Z" stroke-linecap="round" />
</g>
		<g transform="matrix(1 0 0 1 -129.81 -83.33)"  >
<path style="stroke: none; stroke-width: 1; stroke-dasharray: none; stroke-linecap: butt; stroke-dashoffset: 0; stroke-linejoin: miter; stroke-miterlimit: 4; fill: rgb(47,46,65); fill-rule: nonzero; opacity: 1;" vector-effect="non-scaling-stroke"  transform=" translate(-163.42, -246.32)" d="M 192.59852 224.6942 C 191.57032 227.88692 190.65266 223.83705 187.27027 224.56551 C 183.20142 225.44176 178.4665 225.14083 175.13441 222.64672 C 170.16963 219.00399 163.73567 218.02337 157.91108 220.02163 C 152.20954 222.03868999999997 142.6576 223.46096 141.17201 229.32342 C 140.65559 231.36123 140.45051 233.57274999999998 139.1988 235.26162 C 138.10444 236.73824 136.37714 237.58016 134.93272000000002 238.71661 C 130.05546 242.55404000000001 133.78318000000002 253.45642 136.09153 259.21707 C 138.39991 264.97772 143.69508000000002 269.17427999999995 149.51679000000001 271.32385 C 155.14960000000002 273.40362 161.26319 273.77047 167.27210000000002 273.60702 C 168.31727000000004 270.89642 167.86573 267.76565 167.00336000000001 264.95568 C 166.06977 261.91369 164.68744 258.97776999999996 164.29743000000002 255.81968999999998 C 163.90742000000003 252.66161 164.76386000000002 249.07441999999998 167.41187000000002 247.30982999999998 C 169.84577000000002 245.68791 173.80652000000003 246.67594999999997 174.73249 249.29825999999997 C 174.19221000000002 246.01984999999996 177.51319 242.84735999999998 180.93757000000002 242.28943999999996 C 184.61408000000003 241.69043999999997 188.29048000000003 243.01776999999996 191.95643 243.67844999999997 C 195.62238 244.33912999999998 194.32118 228.90543999999997 192.59852 224.69419999999997 Z" stroke-linecap="round" />
</g>
		<g transform="matrix(0.08 -1 1 0.08 -11.88 -43.94)"  >
<circle style="stroke: none; stroke-width: 1; stroke-dasharray: none; stroke-linecap: butt; stroke-dashoffset: 0; stroke-linejoin: miter; stroke-miterlimit: 4; fill: rgb(142,70,158); fill-rule: nonzero; opacity: 1;" vector-effect="non-scaling-stroke"  cx="0" cy="0" r="51.12006" />
</g>
		<g transform="matrix(1 0 0 1 -11.88 -43.94)"  >
<path style="stroke: none; stroke-width: 1; stroke-dasharray: none; stroke-linecap: butt; stroke-dashoffset: 0; stroke-linejoin: miter; stroke-miterlimit: 4; fill: rgb(255,255,255); fill-rule: nonzero; opacity: 1;" vector-effect="non-scaling-stroke"  transform=" translate(-281.36, -285.71)" d="M 294.78675 264.41051 L 281.35847 277.83879 L 267.93019000000004 264.41051000000004 C 265.75648 262.23677000000004 262.23213000000004 262.23677000000004 260.05842 264.41051000000004 C 257.88471 266.58425000000005 257.88471000000004 270.10854000000006 260.05842 272.28228000000007 L 273.48670000000004 285.7105600000001 L 260.05842000000007 299.1388400000001 C 257.88673000000006 301.31459000000007 257.89002000000005 304.83891000000006 260.06581000000006 307.0106100000001 C 262.23866000000004 309.1794000000001 265.75734000000006 309.1794000000001 267.93019000000004 307.0105800000001 L 281.35847 293.58230000000015 L 294.78675 307.0105800000001 C 296.96252999999996 309.18227000000013 300.48681999999997 309.17898000000014 302.65852 307.00323000000014 C 304.82734 304.8303500000001 304.82734 301.3117300000001 302.65852 299.13885000000016 L 289.23024 285.7105700000002 L 302.65851999999995 272.2822900000002 C 304.83223 270.1085500000002 304.83223 266.5842600000002 302.65851999999995 264.4105200000002 C 300.4848099999999 262.2367800000002 296.96045999999996 262.2367800000002 294.7867499999999 264.4105200000002 L 294.7867499999999 264.4105200000002 Z" stroke-linecap="round" />
</g>
		<g transform="matrix(1 0 0 1 -46.43 -57.41)"  >
<path style="stroke: none; stroke-width: 1; stroke-dasharray: none; stroke-linecap: butt; stroke-dashoffset: 0; stroke-linejoin: miter; stroke-miterlimit: 4; fill: rgb(160,97,106); fill-rule: nonzero; opacity: 1;" vector-effect="non-scaling-stroke"  transform=" translate(-246.81, -272.24)" d="M 261.21387 242.74385 C 262.72076999999996 247.28331 260.26232999999996 252.18486000000001 255.72289999999998 253.69176000000002 C 255.23888999999997 253.85240000000002 254.74169999999998 253.96999000000002 254.237 254.04317 L 243.40649 307.76009 L 231.95861 296.59224 L 244.25127 246.11015 C 243.87761 241.31575 247.46135 237.1262 252.25579 236.75255 C 256.26745 236.43990000000002 259.97087999999997 238.91680000000002 261.21386 242.74385 Z" stroke-linecap="round" />
</g>
		<g transform="matrix(1 0 0 1 -95.33 -27.89)"  >
<path style="stroke: none; stroke-width: 1; stroke-dasharray: none; stroke-linecap: butt; stroke-dashoffset: 0; stroke-linejoin: miter; stroke-miterlimit: 4; fill: rgb(63,61,86); fill-rule: nonzero; opacity: 1;" vector-effect="non-scaling-stroke"  transform=" translate(-197.91, -301.75)" d="M 146.12519 312.22478 L 142.07636 315.63890000000004 C 138.34314 318.80104000000006 136.5416 323.68925 137.32987 328.51778 C 137.62116 330.35695000000004 138.2876 332.11657 139.28773 333.68727 L 139.29597 333.69957 C 142.31074 338.42268 147.86317000000003 340.87822 153.38575 339.93074 L 175.6565 336.08903000000004 C 196.94110999999998 338.81898 221.80804999999998 329.42936000000003 247.99952 315.55848000000003 L 258.67921 265.18574 L 234.44624000000002 263.37763 L 225.27803000000003 296.16034 L 169.48988000000003 304.44183000000004 L 169.45710000000003 304.44598 L 149.81416000000002 309.12365 L 146.1252 312.22475 Z" stroke-linecap="round" />
</g>
		<g transform="matrix(1 0 0 1 -156.18 328.3)"  >
<path style="stroke: none; stroke-width: 1; stroke-dasharray: none; stroke-linecap: butt; stroke-dashoffset: 0; stroke-linejoin: miter; stroke-miterlimit: 4; fill: rgb(202,202,202); fill-rule: nonzero; opacity: 1;" vector-effect="non-scaling-stroke"  transform=" translate(-137.06, -657.95)" d="M 272.93684 658.99046 L 1.1868400000000179 659.29777 C 0.5292500000000179 659.29563 -0.002119999999982136 658.76084 0.00001000000001782908 658.10325 C 0.002120000000017829 657.44865 0.5322400000000178 656.91856 1.1868400000000179 656.91642 L 272.93684 656.60911 C 273.59443000000005 656.61125 274.1258 657.14604 274.12367 657.80363 C 274.12159 658.45823 273.59144 658.98832 272.93684 658.99046 Z" stroke-linecap="round" />
</g>
		<g transform="matrix(1 0 0 1 -236.46 -247.59)"  >
<ellipse style="stroke: none; stroke-width: 1; stroke-dasharray: none; stroke-linecap: butt; stroke-dashoffset: 0; stroke-linejoin: miter; stroke-miterlimit: 4; fill: rgb(63,61,86); fill-rule: nonzero; opacity: 1;" vector-effect="non-scaling-stroke"  cx="0" cy="0" rx="8.45661" ry="8.64507" />
</g>
		<g transform="matrix(1 0 0 1 -207.25 -247.59)"  >
<ellipse style="stroke: none; stroke-width: 1; stroke-dasharray: none; stroke-linecap: butt; stroke-dashoffset: 0; stroke-linejoin: miter; stroke-miterlimit: 4; fill: rgb(63,61,86); fill-rule: nonzero; opacity: 1;" vector-effect="non-scaling-stroke"  cx="0" cy="0" rx="8.45661" ry="8.64507" />
</g>
		<g transform="matrix(1 0 0 1 -178.03 -247.59)"  >
<ellipse style="stroke: none; stroke-width: 1; stroke-dasharray: none; stroke-linecap: butt; stroke-dashoffset: 0; stroke-linejoin: miter; stroke-miterlimit: 4; fill: rgb(63,61,86); fill-rule: nonzero; opacity: 1;" vector-effect="non-scaling-stroke"  cx="0" cy="0" rx="8.45661" ry="8.64507" />
</g>
		<g transform="matrix(1 0 0 1 -147.58 -247.59)"  >
<path style="stroke: none; stroke-width: 1; stroke-dasharray: none; stroke-linecap: butt; stroke-dashoffset: 0; stroke-linejoin: miter; stroke-miterlimit: 4; fill: rgb(63,61,86); fill-rule: nonzero; opacity: 1;" vector-effect="non-scaling-stroke"  transform=" translate(-145.66, -82.06)" d="M 148.51577 88.89113 C 148.256 88.89113 147.99673 88.79054000000001 147.80093 88.59035 L 142.09488 82.75734 C 141.71451 82.36867 141.71451 81.74757 142.09488 81.3589 L 147.80093 75.52638 C 148.18814 75.13185 148.82192999999998 75.1255 149.21499 75.51076 C 149.61001 75.89699 149.61685 76.53029000000001 149.23061 76.92482000000001 L 144.20864 82.05812000000002 L 149.23061 87.19191000000002 C 149.61684000000002 87.58644000000002 149.61 88.21974000000002 149.21499 88.60597000000003 C 149.02065 88.79640000000003 148.76821 88.89113000000003 148.51577 88.89113000000003 Z" stroke-linecap="round" />
</g>
		<g transform="matrix(1 0 0 1 -132.28 -247.59)"  >
<path style="stroke: none; stroke-width: 1; stroke-dasharray: none; stroke-linecap: butt; stroke-dashoffset: 0; stroke-linejoin: miter; stroke-miterlimit: 4; fill: rgb(63,61,86); fill-rule: nonzero; opacity: 1;" vector-effect="non-scaling-stroke"  transform=" translate(-160.96, -82.06)" d="M 158.10415 88.89113 C 157.85171 88.89113 157.59927 88.7964 157.40493 88.60597 C 157.00991000000002 88.21974 157.00307 87.58693 157.38931 87.19191 L 162.41079 82.05811999999999 L 157.38931 76.92481999999998 C 157.00307999999998 76.53028999999998 157.00992 75.89698999999999 157.40493 75.51075999999998 C 157.79897 75.12403999999998 158.43276 75.13136999999998 158.81899 75.52637999999997 L 164.52456 81.35889999999998 C 164.90493 81.74756999999998 164.90493 82.36866999999998 164.52456 82.75733999999997 L 158.81899 88.59034999999997 C 158.62319000000002 88.79054999999997 158.36391 88.89112999999998 158.10415 88.89112999999998 Z" stroke-linecap="round" />
</g>
		<g transform="matrix(1 0 0 1 158.07 -247.73)"  >
<path style="stroke: none; stroke-width: 1; stroke-dasharray: none; stroke-linecap: butt; stroke-dashoffset: 0; stroke-linejoin: miter; stroke-miterlimit: 4; fill: rgb(63,61,86); fill-rule: nonzero; opacity: 1;" vector-effect="non-scaling-stroke"  transform=" translate(-451.31, -81.91)" d="M 456.61398 74.41416 L 446.00399000000004 74.41416 C 444.79397000000006 74.41416 443.81399000000005 75.39414 443.81399000000005 76.60416 L 443.81399000000005 87.22416 C 443.81399000000005 88.43418 444.79397000000006 89.41416 446.00399000000004 89.41416 L 456.61398 89.41416 C 457.824 89.41416 458.81399000000005 88.43418 458.81399000000005 87.22416 L 458.81399000000005 76.60416 C 458.81399000000005 75.39414 457.82400000000007 74.41416 456.61398 74.41416 Z" stroke-linecap="round" />
</g>
		<g transform="matrix(1 0 0 1 132.07 -247.73)"  >
<path style="stroke: none; stroke-width: 1; stroke-dasharray: none; stroke-linecap: butt; stroke-dashoffset: 0; stroke-linejoin: miter; stroke-miterlimit: 4; fill: rgb(63,61,86); fill-rule: nonzero; opacity: 1;" vector-effect="non-scaling-stroke"  transform=" translate(-425.31, -81.91)" d="M 430.61398 74.41416 L 420.00399000000004 74.41416 C 418.79397000000006 74.41416 417.81399000000005 75.39414 417.81399000000005 76.60416 L 417.81399000000005 87.22416 C 417.81399000000005 88.43418 418.79397000000006 89.41416 420.00399000000004 89.41416 L 430.61398 89.41416 C 431.824 89.41416 432.81399000000005 88.43418 432.81399000000005 87.22416 L 432.81399000000005 76.60416 C 432.81399000000005 75.39414 431.82400000000007 74.41416 430.61398 74.41416 Z" stroke-linecap="round" />
</g>
		<g transform="matrix(1 0 0 1 182.57 -247.23)"  >
<path style="stroke: none; stroke-width: 1; stroke-dasharray: none; stroke-linecap: butt; stroke-dashoffset: 0; stroke-linejoin: miter; stroke-miterlimit: 4; fill: rgb(63,61,86); fill-rule: nonzero; opacity: 1;" vector-effect="non-scaling-stroke"  transform=" translate(-475.81, -82.41)" d="M 481.11398 74.91416 L 470.50399000000004 74.91416 C 469.29397000000006 74.91416 468.31399000000005 75.89414 468.31399000000005 77.10416 L 468.31399000000005 87.72416 C 468.31399000000005 88.93418 469.29397000000006 89.91416 470.50399000000004 89.91416 L 481.11398 89.91416 C 482.324 89.91416 483.31399000000005 88.93418 483.31399000000005 87.72416 L 483.31399000000005 77.10416 C 483.31399000000005 75.89414 482.32400000000007 74.91416 481.11398 74.91416 Z" stroke-linecap="round" />
</g>
		<g transform="matrix(1 0 0 1 -14.45 -248.02)"  >
<path style="stroke: none; stroke-width: 1; stroke-dasharray: none; stroke-linecap: butt; stroke-dashoffset: 0; stroke-linejoin: miter; stroke-miterlimit: 4; fill: rgb(63,61,86); fill-rule: nonzero; opacity: 1;" vector-effect="non-scaling-stroke"  transform=" translate(-278.79, -81.62)" d="M 321.19229 78.95414 L 236.38229 78.95414 C 234.90225 78.95414 233.71225 80.15415 233.71225 81.62418 C 233.71225 83.09420999999999 234.90225 84.29415999999999 236.38229 84.29415999999999 L 321.19229 84.29415999999999 C 322.66226 84.29415999999999 323.86227 83.09414999999998 323.86227 81.62418 C 323.86227 80.15421 322.66226 78.95414 321.19229 78.95414 Z" stroke-linecap="round" />
</g>
</g>
</g>
</svg>